<svg width="60" height="60" viewBox="0 0 60 60" fill="none" xmlns="http://www.w3.org/2000/svg">
<g clip-path="url(#clip0_430_36)">
<path d="M10 0.751953C4.47715 0.751953 0 5.22911 0 10.752V49.2482C0 54.771 4.47715 59.2482 10 59.2482H50C55.5228 59.2482 60 54.771 60 49.2482V10.752C60 5.22911 55.5228 0.751953 50 0.751953H10ZM2.49937 13.2513C2.49937 7.72848 6.97653 3.25133 12.4994 3.25133H47.4988C53.0216 3.25133 57.4987 7.72848 57.4987 13.2513V46.7469C57.4987 52.2698 53.0216 56.747 47.4988 56.747H12.4994C6.97653 56.747 2.49937 52.2698 2.49937 46.747V13.2513ZM16.9631 33.8763C16.9631 33.8771 16.963 33.878 16.9628 33.8788L14.9812 41.3382C14.9419 41.5426 14.8537 41.6213 14.61 41.6213H10.9388C10.695 41.6213 10.6556 41.5332 10.695 41.2501L17.7937 16.4157C17.9119 15.9657 17.9981 15.6057 18.0375 14.3645C18.0375 14.1976 18.1163 14.1113 18.2419 14.1113H23.4862C23.6531 14.1113 23.73 14.1601 23.7694 14.3645L31.7288 41.2876C31.7681 41.492 31.7288 41.6101 31.5244 41.6101H27.4031C27.1987 41.6101 27.0712 41.5426 27.0319 41.3757L25.8881 37.2075C25.3466 35.2342 23.5528 33.8663 21.5066 33.8663H16.9731C16.9676 33.8663 16.9631 33.8708 16.9631 33.8763ZM21.004 29.8145C22.51 29.8145 23.6063 28.3986 23.2174 26.9436C22.426 23.9822 21.4098 20.2112 20.9608 18.0841C20.9584 18.0731 20.9488 18.0657 20.9374 18.0657C20.9259 18.0657 20.9161 18.0736 20.914 18.0849C20.5036 20.3111 19.6254 23.708 18.7737 26.9106C18.3838 28.3768 19.4868 29.8145 21.004 29.8145ZM37.3725 32.3738C37.4212 35.762 39.0225 38.0288 42.8212 38.0288C44.3062 38.0288 45.5756 37.8338 46.8937 37.247C47.0606 37.1682 47.1862 37.217 47.1862 37.4232V40.5582C47.1862 40.9483 46.7603 41.1511 46.398 41.2958C45.1777 41.783 43.7043 42.0038 41.9137 42.0038C35.3119 42.0038 32.8406 37.1401 32.8406 31.6913C32.8406 25.7926 35.8875 20.9682 41.2594 20.9682C46.6987 20.9682 48.5925 25.5488 48.5925 29.2595C48.5925 30.4613 48.5044 31.4476 48.3881 31.9051C48.3394 32.1095 48.2606 32.1788 48.0562 32.2182C47.5575 32.3063 46.0744 32.3851 43.8862 32.3851H37.3837C37.3775 32.3851 37.3725 32.38 37.3725 32.3738ZM42.4519 28.9351C43.1431 28.9351 43.5921 28.9351 43.879 28.9289C44.1355 28.9233 44.3475 28.7229 44.3475 28.4663C44.3475 27.0995 43.6838 24.5982 41.085 24.5982C40.6281 24.5982 40.2207 24.6751 39.8589 24.8151C37.351 25.7854 39.7628 28.9351 42.4519 28.9351Z" fill="black"/>
</g>
<defs>
<clipPath id="clip0_430_36">
<rect width="60" height="60" fill="white"/>
</clipPath>
</defs>
</svg>
