<svg width="60" height="60" viewBox="0 0 60 60" fill="none" xmlns="http://www.w3.org/2000/svg">
<g clip-path="url(#clip0_430_34)">
<path d="M10 0.751953C4.47715 0.751953 0 5.22911 0 10.752V49.2482C0 54.771 4.47715 59.2482 10 59.2482H50C55.5228 59.2482 60 54.771 60 49.2482V10.752C60 5.22911 55.5228 0.751953 50 0.751953H10ZM2.49937 13.2513C2.49937 7.72848 6.97653 3.25133 12.4994 3.25133H47.4988C53.0216 3.25133 57.4987 7.72848 57.4987 13.2513V46.7469C57.4987 52.2698 53.0216 56.747 47.4988 56.747H12.4994C6.97653 56.747 2.49937 52.2698 2.49937 46.747V13.2513ZM20.8098 33.8774C20.8102 33.8775 20.8105 33.878 20.8104 33.8784L18.8288 41.3682C18.7894 41.5838 18.7106 41.6213 18.4669 41.6213H14.7956C14.5425 41.6213 14.5031 41.5426 14.5425 41.2594L21.6413 16.397C21.7687 15.947 21.8456 15.5476 21.885 14.3063C21.885 14.1395 21.9731 14.0626 22.1006 14.0626H27.3356C27.5025 14.0626 27.5887 14.102 27.6281 14.3063L35.5875 41.2988C35.6362 41.5032 35.5875 41.6213 35.3831 41.6213H31.2619C31.0463 41.6213 30.93 41.5726 30.8906 41.4057L29.0032 34.5397C28.8953 34.1475 28.5387 33.8757 28.132 33.8757H20.81C20.809 33.8757 20.8088 33.8771 20.8098 33.8774ZM24.849 29.8145C26.3373 29.8145 27.4225 28.4149 27.0443 26.9755C26.2663 24.0137 25.2713 20.2304 24.8204 18.0885C24.8175 18.0748 24.8056 18.0657 24.7916 18.0657C24.7773 18.0657 24.7651 18.0755 24.7626 18.0896C24.3573 20.3251 23.4867 23.7386 22.6429 26.9507C22.2626 28.3983 23.3523 29.8145 24.849 29.8145ZM39.0291 15.9188C39.0317 15.9188 39.0338 15.9167 39.0338 15.9141C39.0359 14.3063 40.1489 13.3595 41.5931 13.3595C43.1175 13.3595 44.1525 14.3945 44.1525 15.9188C44.1525 17.5688 43.0781 18.4782 41.5444 18.4782C40.0514 18.4782 39.0263 17.5724 39.0244 15.9236C39.0244 15.921 39.0265 15.9188 39.0291 15.9188ZM39.3262 21.601C39.3212 21.6015 39.3169 21.5975 39.3169 21.5924C39.3195 21.4044 39.399 21.3282 39.6 21.3282H43.5263C43.7513 21.3282 43.8281 21.407 43.8281 21.6207V41.357C43.8281 41.5613 43.7887 41.6401 43.5356 41.6401H39.6675C39.4144 41.6401 39.3356 41.5219 39.3356 41.3176V21.6095C39.3356 21.6045 39.3313 21.6005 39.3262 21.601Z" fill="black"/>
</g>
<defs>
<clipPath id="clip0_430_34">
<rect width="60" height="60" fill="white"/>
</clipPath>
</defs>
</svg>
