<svg width="67" height="68" viewBox="0 0 67 68" fill="none" xmlns="http://www.w3.org/2000/svg">
<g clip-path="url(#clip0_320_79)">
<path d="M33.5 0.599935C52.0235 0.599936 67 15.5764 67 34.1C67 52.6235 52.0235 67.6 33.5 67.6C14.9765 67.6 -2.15789e-05 52.6235 -1.99595e-05 34.1C-1.83401e-05 15.5764 14.9765 0.599933 33.5 0.599935ZM33.5 63.6588C49.8559 63.6588 63.0588 50.4558 63.0588 34.1C63.0588 17.7441 49.8559 4.54111 33.5 4.54111C17.1441 4.54111 3.94116 17.7441 3.94116 34.1C3.94116 50.4558 17.1441 63.6588 33.5 63.6588Z" fill="#0E0E0E"/>
<path d="M21.82 31.4902L32.61 42.2802L43.4 31.4902L45.22 33.3102L32.61 45.9202L20 33.3102L21.82 31.4902Z" fill="#0E0E0E"/>
<path d="M33.91 44.1001L31.31 44.1001L31.31 22.0001L33.91 22.0001L33.91 44.1001Z" fill="#0E0E0E"/>
</g>
<defs>
<clipPath id="clip0_320_79">
<rect width="67.0001" height="68" fill="white" transform="translate(67.0001 68) rotate(-180)"/>
</clipPath>
</defs>
</svg>
