<svg width="16" height="16" viewBox="0 0 16 16" fill="none" xmlns="http://www.w3.org/2000/svg">
<path d="M8.00065 14.6673C7.07843 14.6673 6.21176 14.4922 5.40065 14.142C4.58954 13.7918 3.88399 13.3169 3.28399 12.7173C2.68399 12.1178 2.2091 11.4122 1.85932 10.6006C1.50954 9.78909 1.33443 8.92243 1.33399 8.00065C1.33354 7.07887 1.50865 6.21221 1.85932 5.40065C2.20999 4.5891 2.68487 3.88354 3.28399 3.28398C3.8831 2.68443 4.58865 2.20954 5.40065 1.85932C6.21265 1.5091 7.07932 1.33398 8.00065 1.33398C8.92199 1.33398 9.78865 1.5091 10.6007 1.85932C11.4127 2.20954 12.1182 2.68443 12.7173 3.28398C13.3164 3.88354 13.7915 4.5891 14.1427 5.40065C14.4938 6.21221 14.6687 7.07887 14.6673 8.00065C14.666 8.92243 14.4909 9.78909 14.142 10.6006C13.7931 11.4122 13.3182 12.1178 12.7173 12.7173C12.1164 13.3169 11.4109 13.792 10.6007 14.1426C9.79043 14.4933 8.92376 14.6682 8.00065 14.6673Z" fill="black"/>
</svg>
