<svg width="82" height="60" viewBox="0 0 82 60" fill="none" xmlns="http://www.w3.org/2000/svg">
<g clip-path="url(#clip0_457_23)">
<path d="M52.0032 0.352539C43.6826 0.352539 36.1746 3.79583 30.7911 9.32713C27.3133 8.62346 23.7268 8.65696 20.2627 9.42547C16.7986 10.194 13.5339 11.6804 10.6791 13.789C7.82433 15.8975 5.44277 18.5814 3.68802 21.6675C1.93326 24.7536 0.844266 28.1734 0.491239 31.7065C0.138212 35.2396 0.528992 38.8076 1.63838 42.1803C2.74777 45.553 4.55115 48.6556 6.93224 51.288C9.31332 53.9205 12.2193 56.0244 15.4627 57.4641C18.7061 58.9038 22.215 59.6473 25.7632 59.6467H52.0032C55.8937 59.6467 59.7462 58.8798 63.3405 57.3899C66.9349 55.9 70.2008 53.7162 72.9518 50.9632C75.7028 48.2102 77.8851 44.942 79.3739 41.345C80.8627 37.7481 81.629 33.8929 81.629 29.9996C81.629 26.1063 80.8627 22.2511 79.3739 18.6542C77.8851 15.0572 75.7028 11.7889 72.9518 9.03596C70.2008 6.28298 66.9349 4.09919 63.3405 2.60929C59.7462 1.11938 55.8937 0.352539 52.0032 0.352539ZM25.7632 54.2594C23.1339 54.2662 20.5293 53.7513 18.1 52.7444C15.6708 51.7376 13.4651 50.2588 11.6106 48.3935C7.83538 44.6114 5.75311 39.5798 5.75311 34.2349C5.75311 28.8899 7.83538 23.8584 11.6148 20.0763C15.3942 16.2942 20.4179 14.2104 25.7632 14.2104C31.1086 14.2104 36.1323 16.2942 39.9159 20.0763L47.8471 28.0175C48.4028 28.5735 48.7149 29.3276 48.7149 30.114C48.7149 30.9003 48.4028 31.6544 47.8471 32.2104C47.2915 32.7664 46.5379 33.0788 45.7522 33.0788C44.9664 33.0788 44.2128 32.7664 43.6572 32.2104L35.726 24.265C30.4018 18.9455 21.1289 18.9455 15.8047 24.265C13.1426 26.9332 11.6783 30.4697 11.6783 34.2349C11.6783 38.0001 13.1426 41.5365 15.8047 44.2048C19.127 47.5252 23.9857 48.7704 28.4634 47.9488C29.8347 49.7445 31.3794 51.4005 33.1189 52.8405C30.7789 53.7754 28.2828 54.2569 25.7632 54.2594ZM69.3089 47.3177C67.041 49.5983 64.3439 51.4066 61.3735 52.6381C58.4032 53.8695 55.2184 54.4997 52.0032 54.4923C48.7873 54.5003 45.6018 53.8703 42.6306 52.6389C39.6595 51.4074 36.9617 49.5988 34.6933 47.3177L23.2281 35.8443C22.6725 35.2883 22.3603 34.5342 22.3603 33.7478C22.3603 32.9615 22.6725 32.2074 23.2281 31.6514C23.7837 31.0953 24.5373 30.783 25.3231 30.783C26.1088 30.783 26.8624 31.0953 27.418 31.6514L38.8832 43.1248C42.3875 46.6316 47.0472 48.5629 52.0032 48.5629C56.9592 48.5629 61.6147 46.6316 65.119 43.1248C68.6233 39.6179 70.5532 34.9549 70.5532 29.9996C70.5532 25.0443 68.6233 20.3812 65.119 16.8744C61.6147 13.3676 56.9592 11.4363 52.0032 11.4363C48.3085 11.4363 44.7788 12.5163 41.7696 14.5154C40.147 13.2021 38.3687 12.0939 36.4751 11.2161C40.8555 7.58219 46.2474 5.50266 52.0075 5.50266C58.5421 5.50266 64.6873 8.0523 69.3132 12.6772C73.939 17.3022 76.4826 23.4561 76.4826 29.9954C76.4826 36.5347 73.9348 42.6928 69.3089 47.3177Z" fill="black"/>
</g>
<defs>
<clipPath id="clip0_457_23">
<rect width="82" height="60" fill="white"/>
</clipPath>
</defs>
</svg>
