<svg width="135" height="134" viewBox="0 0 135 134" fill="none" xmlns="http://www.w3.org/2000/svg">
<g clip-path="url(#clip0_349_50)">
<path d="M102.624 51.2183C100.3 32.6161 84.629 0 51.3119 0C21.6651 0 -0.0498007 25.8155 8.57786e-05 51.2183C0.0713522 87.057 43.4441 107.921 51.3119 102.437C55.9514 99.2 49.124 86.1606 57.7259 76.8275C62.5007 71.6488 69.2711 70.6031 70.5539 70.4252C83.2108 68.6966 89.7815 79.4311 96.2098 76.8275C102.602 74.2381 103.785 60.5088 102.624 51.2183ZM19.5984 70.0695C16.0564 70.0695 13.1844 67.2027 13.1844 63.6673C13.1844 60.1318 16.0564 57.265 19.5984 57.265C23.1403 57.265 26.0123 60.1318 26.0123 63.6673C26.0123 67.2027 23.1403 70.0695 19.5984 70.0695ZM19.5984 44.4604C16.0564 44.4604 13.1844 41.5936 13.1844 38.0581C13.1844 34.5226 16.0564 31.6558 19.5984 31.6558C23.1403 31.6558 26.0123 34.5226 26.0123 38.0581C26.0123 41.5936 23.1403 44.4604 19.5984 44.4604ZM38.8403 25.2535C35.2984 25.2535 32.4263 22.3867 32.4263 18.8512C32.4263 15.3157 35.2984 12.4489 38.8403 12.4489C42.3822 12.4489 45.2543 15.3157 45.2543 18.8512C45.2543 22.3867 42.3822 25.2535 38.8403 25.2535ZM64.4962 25.2535C60.9543 25.2535 58.0822 22.3867 58.0822 18.8512C58.0822 15.3157 60.9543 12.4489 64.4962 12.4489C68.0381 12.4489 70.9102 15.3157 70.9102 18.8512C70.9102 22.3867 68.0381 25.2535 64.4962 25.2535ZM83.7381 44.4604C80.1962 44.4604 77.3242 41.5936 77.3242 38.0581C77.3242 34.5226 80.1962 31.6558 83.7381 31.6558C87.2801 31.6558 90.1521 34.5226 90.1521 38.0581C90.1521 41.5936 87.2801 44.4604 83.7381 44.4604Z" fill="white"/>
<path d="M45.896 122.952C45.7534 123.315 44.4992 126.644 46.4875 130.03C46.687 130.372 48.5898 133.495 52.3812 134.007C72.1719 121.195 91.9626 108.383 111.746 95.5717C110.663 93.7293 109.587 91.8869 108.504 90.0444" fill="white"/>
<path d="M126.064 94.6187C120.527 97.8554 115.531 95.6716 112.901 91.19C111.283 88.4299 110.806 81.2877 116.336 78.051C118.161 77.1618 120.185 76.4149 123.997 76.2157C128.829 75.9596 132.792 77.2685 135.001 78.1862C134.723 80.555 133.789 84.5031 131.345 88.7286C129.428 92.0507 127.725 93.4663 126.064 94.6187Z" fill="white"/>
</g>
<defs>
<clipPath id="clip0_349_50">
<rect width="135" height="134" fill="white"/>
</clipPath>
</defs>
</svg>
