<svg width="149" height="62" viewBox="0 0 149 62" fill="none" xmlns="http://www.w3.org/2000/svg">
<path d="M3 30.9989C7.81086 35.6908 33.4415 59.7452 74.2261 59.998C115.249 60.2508 140.961 35.9139 145.764 31.3112C140.954 26.6193 116.275 2.25273 75.4976 2.00735C34.4751 1.75454 8.44289 25.7717 3.63947 30.3818L3 30.9989Z" stroke="black" stroke-width="4" stroke-miterlimit="10"/>
<path d="M74.5378 45.4985C82.9687 45.4985 89.8032 39.0069 89.8032 30.999C89.8032 22.9912 82.9687 16.4995 74.5378 16.4995C66.107 16.4995 59.2725 22.9912 59.2725 30.999C59.2725 39.0069 66.107 45.4985 74.5378 45.4985Z" stroke="black" stroke-width="4" stroke-miterlimit="10"/>
<path d="M44.0156 30.999C44.0156 46.9039 57.7939 59.998 74.539 59.998C91.284 59.998 105.062 46.9039 105.062 30.999C105.062 15.0942 91.284 2 74.539 2C57.7939 2 44.0156 15.0942 44.0156 30.999Z" stroke="black" stroke-width="4" stroke-miterlimit="10"/>
</svg>
