<svg width="47" height="70" viewBox="0 0 47 70" fill="none" xmlns="http://www.w3.org/2000/svg">
<path fill-rule="evenodd" clip-rule="evenodd" d="M12.8773 0C5.74021 0 0.00020895 5.98792 0.00020895 13.3233C0.00020895 17.7829 2.12354 21.7438 5.38729 24.1617C3.70468 25.4214 2.34085 27.0582 1.40529 28.9404C0.469729 30.8227 -0.0115083 32.8981 0.00020895 35C0.00020895 39.4625 2.12354 43.4204 5.38729 45.8383C3.70468 47.0981 2.34085 48.7348 1.40529 50.6171C0.469729 52.4994 -0.0115083 54.5747 0.00020895 56.6767C0.00020895 64.0121 5.74021 70 12.8773 70C20.0144 70 25.7544 64.0121 25.7544 56.6767V45.4125C28.0091 47.2947 30.8528 48.3258 33.7898 48.3263C40.9269 48.3233 46.6669 42.3354 46.6669 35C46.6786 32.8981 46.1974 30.8227 45.2618 28.9404C44.3262 27.0582 42.9624 25.4214 41.2798 24.1617C42.9624 22.9019 44.3262 21.2652 45.2618 19.3829C46.1974 17.5006 46.6786 15.4253 46.6669 13.3233C46.6669 5.98792 40.9269 0 33.7898 0H12.8773ZM4.83896 13.3233C4.83896 8.68292 8.46146 4.96708 12.8773 4.96708H20.9127V21.6796H12.8773C8.46146 21.6796 4.83896 17.9608 4.83896 13.3233ZM33.7898 21.6767H25.7544V4.96417H33.7898C38.2085 4.96417 41.8281 8.68292 41.8281 13.3233C41.8281 17.9608 38.2085 21.6767 33.7898 21.6767ZM4.84188 35C4.84188 30.3625 8.46438 26.6438 12.8802 26.6438H20.9156V43.3563H12.8773C8.45854 43.3563 4.84188 39.6375 4.84188 35ZM25.7515 35C25.7515 30.3625 29.374 26.6438 33.7898 26.6438C38.2085 26.6438 41.8281 30.3596 41.8281 35C41.8281 39.6375 38.2085 43.3563 33.7898 43.3563C29.371 43.3563 25.7515 39.6375 25.7515 35ZM4.84188 56.6767C4.84188 52.0392 8.46438 48.3233 12.8802 48.3233H20.9156V56.6767C20.9156 61.3171 17.299 65.0329 12.8802 65.0329C8.46146 65.0329 4.84188 61.3171 4.84188 56.6767Z" fill="black"/>
</svg>
