<svg width="645" height="643" viewBox="0 0 645 643" fill="none" xmlns="http://www.w3.org/2000/svg">
<path d="M336.42 6.02003C403.39 133.37 450.38 -6.44997 483.39 49.07C483.5 192.96 590.08 91 593.51 155.5C526.73 282.96 668.5 242.21 641.56 300.91C505.66 390.66 723.22 435.98 572.72 463.36C504.99 476.8 575.73 573.24 524.16 574.14C373.09 513.29 459.39 718.07 351.36 609.77C301.82 561.67 262.65 674.67 232.6 632.73C196.87 473.84 77.3501 661.19 105.12 510.76C111.61 467.41 59.2701 459.26 28.5901 451.99C-22.7499 413.17 121.87 382.45 3.56011 300.91C-23.8499 242.68 118.48 282.68 51.6101 155.5C54.4001 91.2 161.84 192.76 161.73 49.07C168.26 15.5 211.14 51.37 226.62 56.73C286.23 91.58 297.22 -27.52 336.43 6.02003H336.42Z" fill="#FAF9F4"/>
<path d="M126.43 337.95H131.9C132.62 345.94 137.52 351.34 148.25 351.34C157.75 351.34 161 346.8 161 341.12C161.07 333.49 155.74 332.19 145.16 329.82C136.74 327.88 128.6 325.28 128.6 315.85C128.6 307.64 135.15 302.6 145.74 302.6C156.9 302.6 163.96 308.29 164.75 318.37H159.28C158.42 311.24 154.46 307.21 145.74 307.21C138.18 307.21 134.07 310.31 134.07 315.63C134.07 322.54 140.19 323.98 147.75 325.64C158.33 327.94 166.47 330.54 166.47 340.98C166.47 349.33 160.71 355.96 148.47 355.96C136.23 355.96 127.16 349.55 126.44 337.96L126.43 337.95Z" fill="#472425"/>
<path d="M205.2 337.59H176.11C176.18 345.01 180.14 351.99 188.78 351.99C196.34 351.99 199.29 346.81 200.01 343.78H204.76C202.96 350.48 197.92 356.02 188.7 356.02C177.47 356.02 171.2 347.81 171.2 336.65C171.2 324.91 178.11 317.35 188.7 317.35C199.29 317.35 205.26 324.77 205.26 334.99C205.26 336 205.26 337.01 205.19 337.58L205.2 337.59ZM200.3 333.49C200.3 326.94 196.05 321.39 188.49 321.39C181.36 321.39 176.47 326.65 176.1 333.49H200.29H200.3Z" fill="#472425"/>
<path d="M261 336.65C261 348.68 253.8 355.88 244.8 355.88C238.39 355.88 234.58 352.71 232.42 348.82H232.28V367.76H227.6V318.29H232.28V324.19H232.42C234.58 320.66 238.4 317.35 244.8 317.35C253.8 317.35 261 324.55 261 336.65ZM256.1 336.65C256.1 328.37 251.92 321.46 244.29 321.46C237.23 321.46 232.27 327.36 232.27 336.65C232.27 345.94 237.24 351.77 244.29 351.77C251.92 351.77 256.1 344.86 256.1 336.65Z" fill="#472425"/>
<path d="M286.13 317.65V322.26C285.41 322.12 284.62 322.04 283.9 322.04C277.28 322.04 272.38 327.37 272.38 334.5V355.02H267.7V318.3H272.38V325.79H272.52C274.39 320.96 277.78 317.44 282.96 317.44C284.26 317.44 285.26 317.51 286.13 317.66V317.65Z" fill="#472425"/>
<path d="M287.06 336.73C287.06 325.28 293.68 317.36 304.7 317.36C315.72 317.36 322.34 325.28 322.34 336.73C322.34 348.18 315.72 356.03 304.7 356.03C293.68 356.03 287.06 348.11 287.06 336.73ZM317.45 336.73C317.45 328.23 313.27 321.47 304.7 321.47C296.13 321.47 291.95 328.24 291.95 336.73C291.95 345.22 296.13 351.92 304.7 351.92C313.27 351.92 317.45 345.15 317.45 336.73Z" fill="#472425"/>
<path d="M322.91 367.69V363.73C323.99 363.8 324.57 363.87 325.65 363.87C328.03 363.87 328.96 362.5 328.96 358.18V318.29H333.64V358.54C333.64 365.67 330.33 367.97 326.44 367.97C325.22 367.97 324.35 367.9 322.91 367.68V367.69ZM328.24 310.95V304.9H334.29V310.95H328.24Z" fill="#472425"/>
<path d="M374.33 337.59H345.24C345.31 345.01 349.27 351.99 357.91 351.99C365.47 351.99 368.42 346.81 369.14 343.78H373.89C372.09 350.48 367.05 356.02 357.83 356.02C346.6 356.02 340.33 347.81 340.33 336.65C340.33 324.91 347.24 317.35 357.83 317.35C368.42 317.35 374.39 324.77 374.39 334.99C374.39 336 374.39 337.01 374.32 337.58L374.33 337.59ZM369.43 333.49C369.43 326.94 365.18 321.39 357.62 321.39C350.49 321.39 345.6 326.65 345.24 333.49H369.43Z" fill="#472425"/>
<path d="M405.86 355.02L391.96 334.71L385.62 340.61V355.01H380.94V303.53H385.62V335.57L403.84 318.29H409.6L395.13 331.76L411.4 355.02H405.86Z" fill="#472425"/>
<path d="M428.9 322.4H421.48V345.59C421.48 350.13 422.49 351.21 426.09 351.21C427.24 351.21 427.82 351.14 428.9 351.07V355.03C427.46 355.25 426.6 355.32 425.44 355.32C420.11 355.32 416.8 353.52 416.8 345.53V322.42H411.4V318.32H416.8V306.08H421.48V318.32H428.9V322.42V322.4Z" fill="#472425"/>
<path d="M513.19 322.63V352.22H518.87V312.9H479.55V318.58H509.15L471.56 356.17L475.61 360.22L513.2 322.63H513.19Z" fill="#472425"/>
</svg>
