<svg width="98" height="134" viewBox="0 0 98 134" fill="none" xmlns="http://www.w3.org/2000/svg">
<path d="M59.65 58.8C63.03 44.7 66.41 30.6 69.79 16.5C73.95 12.49 78.1 8.49001 82.26 4.48001C84.16 9.87001 86.06 15.26 87.97 20.66C84.95 33.35 81.94 46.04 78.92 58.74C72.5 58.76 66.08 58.78 59.66 58.8H59.65Z" stroke="black" stroke-width="4" stroke-miterlimit="10"/>
<path d="M70.13 15.09L88.31 19.25" stroke="black" stroke-width="4" stroke-miterlimit="10"/>
<path d="M25.92 58.74C23.75 46.91 21.58 35.08 19.41 23.26C25.51 22.05 31.61 20.84 37.7 19.63C40.44 32.67 43.18 45.71 45.92 58.74H25.92Z" stroke="black" stroke-width="4" stroke-miterlimit="10"/>
<path d="M21.07 31.59L39.36 27.96" stroke="black" stroke-width="4" stroke-miterlimit="10"/>
<path d="M68.92 59.72L77.92 22.6" stroke="black" stroke-width="4" stroke-miterlimit="10"/>
<path d="M86.79 59.07H11.7C6.66318 59.07 2.58002 63.1509 2.58002 68.185C2.58002 73.2191 6.66318 77.3 11.7 77.3H86.79C91.8269 77.3 95.91 73.2191 95.91 68.185C95.91 63.1509 91.8269 59.07 86.79 59.07Z" stroke="black" stroke-width="4" stroke-miterlimit="10"/>
<path d="M11.92 77.3L20.31 126.48C20.86 129.69 23.26 132 26.05 132H72.24C75.15 132 77.66 129.59 78.23 126.24L86.58 77.29H11.92V77.3Z" stroke="black" stroke-width="4" stroke-miterlimit="10"/>
<path d="M32.81 20.55L23.01 22.5L21.02 12.92L30.82 10.98L32.81 20.55Z" stroke="black" stroke-width="4" stroke-miterlimit="10"/>
<path d="M25.74 11.89L24.1 4" stroke="black" stroke-width="4" stroke-miterlimit="10"/>
</svg>
