<svg width="81" height="30" viewBox="0 0 81 30" fill="none" xmlns="http://www.w3.org/2000/svg">
<g clip-path="url(#clip0_427_479)">
<path d="M23.5618 14.0116C23.5618 14.0116 23.5618 14.0198 23.5618 14.0247L22.4979 18.6903C22.4405 18.9542 22.1799 19.1477 21.8783 19.1477H20.5947C20.4996 19.1477 20.4143 19.2116 20.3881 19.3034C19.2029 23.3673 17.5979 26.1608 15.4783 27.8378C13.6749 29.2657 11.452 29.9313 8.48318 29.9313C5.81432 29.9313 4.01596 29.064 2.48974 27.3526C0.473341 25.0903 -0.361085 21.387 0.143833 16.9247C1.05531 8.54767 5.35367 0.0952154 13.634 0.0952154C16.1521 0.0722647 18.1291 0.85751 19.5045 2.42472C20.9586 4.0821 21.6979 6.57883 21.7012 9.84604C21.6962 10.1428 21.4521 10.3821 21.1586 10.3821H15.093C14.8783 10.3821 14.6865 10.187 14.6897 9.97227C14.6405 7.71324 13.9766 6.61161 12.6586 6.61161C10.334 6.61161 8.96187 9.80177 8.234 11.5706C7.21761 14.0411 6.70121 16.7231 6.80284 19.3952C6.85039 20.6395 7.04875 22.3887 8.21761 23.1133C9.25367 23.7559 10.7324 23.3296 11.6274 22.6182C12.5225 21.9066 13.2422 20.6756 13.5455 19.5526C13.5881 19.3969 13.5914 19.2756 13.5504 19.2215C13.5078 19.1657 13.3897 19.1526 13.2996 19.1526H11.7422C11.575 19.1526 11.4094 19.0756 11.3094 18.9509C11.2258 18.846 11.193 18.7165 11.2225 18.5887L12.2881 13.9148C12.3406 13.6756 12.5553 13.4952 12.8192 13.4625V13.4509H23.0405C23.0652 13.4509 23.0897 13.4509 23.1127 13.4559C23.3783 13.4903 23.5652 13.7395 23.5603 14.0116H23.5618Z" fill="#0E100F"/>
<path d="M41.1625 8.64918C41.1576 8.94099 40.9133 9.18032 40.6199 9.18032H35.033C34.6675 9.18032 34.3608 8.88032 34.3608 8.51475C34.3608 6.86721 33.7969 6.06557 32.6429 6.06557C31.4888 6.06557 30.7445 6.78196 30.7232 8.03279C30.6986 9.42787 31.4789 10.6951 33.7019 12.8738C36.6281 15.6475 37.8002 18.1049 37.7445 21.3525C37.6527 26.6049 34.1182 30 28.7412 30C25.9952 30 23.8969 29.2574 22.5019 27.7935C21.0855 26.3065 20.4363 24.1245 20.5724 21.3082C20.5789 21.0164 20.8215 20.7787 21.115 20.7787H26.8937C27.0511 20.7787 27.2068 20.8557 27.3117 20.9869C27.4019 21.1 27.4395 21.2393 27.4167 21.3705C27.3527 22.3869 27.5281 23.1458 27.9232 23.5656C28.1773 23.8377 28.5298 23.9755 28.9707 23.9755C30.038 23.9755 30.6642 23.2131 30.6871 21.8852C30.7068 20.7377 30.3477 19.7312 28.3904 17.6968C25.8625 15.2 23.5952 12.6213 23.6658 8.56557C23.7068 6.21475 24.6314 4.06394 26.2691 2.50983C28.0002 0.867213 30.3691 0 33.1182 0C35.8724 0.0196721 37.9593 0.813114 39.3215 2.35901C40.6117 3.82458 41.233 5.94099 41.1642 8.64918H41.1625Z" fill="#0E100F"/>
<path d="M58.4797 29.0114L58.5157 1.07869C58.5206 0.785243 58.2862 0.545898 57.9928 0.545898H49.3453C49.0551 0.545898 48.9273 0.798357 48.8436 0.96557L36.324 28.841V28.846C36.324 28.846 36.3206 28.8508 36.3191 28.8525C36.1797 29.195 36.4436 29.5623 36.8109 29.5623H42.8551C43.1813 29.5623 43.3978 29.4623 43.5043 29.2541L44.7043 26.3393C44.8518 25.9508 44.8797 25.9148 45.2993 25.9148H51.0748C51.4764 25.9148 51.4847 25.923 51.478 26.3197L51.3486 29.0295C51.3436 29.323 51.578 29.5623 51.8716 29.5623H57.978C58.1338 29.5623 58.2797 29.4967 58.3764 29.3804C58.4632 29.277 58.4993 29.146 58.4797 29.0114ZM47.7813 19.6852C47.7256 19.6852 47.6813 19.6836 47.6453 19.6804C47.5551 19.6722 47.4944 19.5852 47.5174 19.4967C47.5288 19.4557 47.5453 19.4017 47.5699 19.3344L51.901 8.50656C51.9387 8.4 51.9862 8.29507 52.0354 8.19344C52.106 8.04754 52.1912 8.0377 52.2174 8.14589C52.2404 8.23606 51.7206 19.2639 51.7206 19.2639C51.6797 19.677 51.6617 19.6935 51.2584 19.7279L47.7862 19.6869H47.778L47.7813 19.6852Z" fill="#0E100F"/>
<path d="M70.798 0.546247H66.2079C65.9653 0.546247 65.6931 0.675756 65.6292 0.967558C65.6292 0.967558 59.2406 28.9938 59.2406 28.9971C59.2128 29.1266 59.2423 29.2545 59.3275 29.361C59.4275 29.4855 59.5931 29.5627 59.7603 29.5627H65.498C65.8062 29.5627 66.0177 29.4102 66.075 29.1446C66.075 29.1446 66.7701 25.9774 66.7718 25.9676C66.821 25.7201 66.7357 25.5283 66.5161 25.4118C66.4128 25.3577 66.3094 25.3036 66.2079 25.2496L65.2128 24.7266L64.2226 24.2053C64.0948 24.138 63.9668 24.0709 63.8406 24.0036C63.7767 23.9709 63.7374 23.9053 63.739 23.8332C63.7406 23.7266 63.8292 23.6397 63.9357 23.6397L67.08 23.6545C68.021 23.6593 68.9619 23.5922 69.8866 23.4201C76.398 22.2053 80.7225 16.9348 80.8472 9.76429C80.9537 3.64461 77.5735 0.542969 70.8029 0.542969L70.798 0.546247ZM69.2357 17.2266H69.1128C68.8374 17.2266 68.7881 17.1954 68.78 17.1855C68.775 17.179 70.5931 9.11345 70.5948 9.10199C70.6406 8.86919 70.639 8.73477 70.4963 8.65608C70.3144 8.55444 67.6603 7.13969 67.6603 7.13969C67.5963 7.10526 67.5587 7.03969 67.5603 6.96756C67.5619 6.86264 67.6488 6.77575 67.7554 6.77575H71.9522C73.2587 6.81674 73.9866 7.99706 73.9522 10.0135C73.8915 13.5053 72.2488 17.1036 69.2357 17.2266Z" fill="#0E100F"/>
<path d="M75.4672 29.5622C76.4115 29.5622 77.1507 28.836 77.1507 27.8573C77.1507 26.8786 76.4115 26.1523 75.4672 26.1523C74.5229 26.1523 73.7754 26.8786 73.7754 27.8573C73.7754 28.836 74.5212 29.5622 75.4672 29.5622ZM74.1769 27.8507C74.1769 27.0196 74.6705 26.4753 75.4672 26.4753C76.2638 26.4753 76.7492 27.0179 76.7492 27.8507C76.7492 28.6835 76.2638 29.231 75.4672 29.231C74.6705 29.231 74.1769 28.6884 74.1769 27.8507ZM74.7279 28.7655H75.2638V28.1097H75.4197C75.8212 28.1097 75.6459 28.6884 75.7442 28.7655H76.2999V28.7375C76.195 28.7097 76.3638 27.9835 75.8984 27.9065V27.8982C76.1246 27.8507 76.2705 27.6868 76.2705 27.4409C76.2705 27.0884 76.0163 26.8982 75.6066 26.8982H74.7246V28.7655H74.7279ZM75.2638 27.7147V27.2769H75.4475C75.6311 27.2769 75.736 27.3343 75.736 27.4949C75.736 27.6425 75.6311 27.713 75.4475 27.713H75.2638V27.7147Z" fill="#0E100F"/>
</g>
<defs>
<clipPath id="clip0_427_479">
<rect width="80.9091" height="30" fill="white"/>
</clipPath>
</defs>
</svg>
