<svg width="20" height="20" viewBox="0 0 20 20" fill="none" xmlns="http://www.w3.org/2000/svg">
<path d="M18.5849 16.591C18.441 16.5905 18.2983 16.5616 18.165 16.506C18.0318 16.4504 17.9106 16.3692 17.8084 16.267C17.7061 16.1648 17.6249 16.0436 17.5693 15.9103C17.5137 15.7771 17.4849 15.6344 17.4844 15.4904L17.4405 4.19057L2.32742 19.3037C2.12277 19.5083 1.84456 19.6227 1.554 19.6215C1.26343 19.6204 0.984308 19.5038 0.778031 19.2975C0.571755 19.0913 0.455222 18.8121 0.45407 18.5216C0.452917 18.231 0.567239 17.9528 0.771885 17.7482L15.885 2.63504L4.58516 2.59118C4.29443 2.59003 4.01515 2.47343 3.80876 2.26704C3.60237 2.06065 3.48577 1.78137 3.48462 1.49065C3.48347 1.19992 3.59785 0.921557 3.80261 0.716797C4.00737 0.512037 4.28573 0.397652 4.57646 0.398805L18.5209 0.454121C18.6649 0.454612 18.8076 0.483477 18.9408 0.539065C19.0741 0.594653 19.1953 0.675874 19.2975 0.778085C19.3997 0.880295 19.4809 1.00149 19.5365 1.13474C19.5921 1.26799 19.621 1.41068 19.6215 1.55466L19.6768 15.4991C19.6774 15.6431 19.6497 15.7856 19.5952 15.9184C19.5406 16.0512 19.4604 16.1717 19.359 16.2731C19.2576 16.3745 19.137 16.4548 19.0042 16.5093C18.8714 16.5639 18.7289 16.5916 18.5849 16.591Z" fill="#0E0E0E"/>
</svg>
