<?xml version="1.0" encoding="UTF-8"?>
<svg id="Layer_2" data-name="Layer 2" xmlns="http://www.w3.org/2000/svg" viewBox="0 0 645.01 642.25">
  <defs>
    <style>
      .cls-1 {
        fill: #faf9f4;
      }

      .cls-2 {
        fill: #472425;
      }
    </style>
  </defs>
  <g id="Layer_1-2" data-name="Layer 1">
    <path class="cls-1" d="M336.42,6.02c66.97,127.35,113.96-12.47,146.97,43.05.11,143.89,106.69,41.93,110.12,106.43-66.78,127.46,74.99,86.71,48.05,145.41-135.9,89.75,81.66,135.07-68.84,162.45-67.73,13.44,3.01,109.88-48.56,110.78-151.07-60.85-64.77,143.93-172.8,35.63-49.54-48.1-88.71,64.9-118.76,22.96-35.73-158.89-155.25,28.46-127.48-121.97,6.49-43.35-45.85-51.5-76.53-58.77-51.34-38.82,93.28-69.54-25.03-151.08-27.41-58.23,114.92-18.23,48.05-145.41,2.79-64.3,110.23,37.26,110.12-106.43,6.53-33.57,49.41,2.3,64.89,7.66,59.61,34.85,70.6-84.25,109.81-50.71Z"/>
    <g>
      <path class="cls-2" d="M126.43,337.95h5.47c.72,7.99,5.62,13.39,16.35,13.39,9.5,0,12.75-4.54,12.75-10.22.07-7.63-5.26-8.93-15.84-11.3-8.42-1.94-16.56-4.54-16.56-13.97,0-8.21,6.55-13.25,17.14-13.25,11.16,0,18.22,5.69,19.01,15.77h-5.47c-.86-7.13-4.82-11.16-13.54-11.16-7.56,0-11.67,3.1-11.67,8.42,0,6.91,6.12,8.35,13.68,10.01,10.58,2.3,18.72,4.9,18.72,15.34,0,8.35-5.76,14.98-18,14.98s-21.31-6.41-22.03-18Z"/>
      <path class="cls-2" d="M205.2,337.59h-29.09c.07,7.42,4.03,14.4,12.67,14.4,7.56,0,10.51-5.18,11.23-8.21h4.75c-1.8,6.7-6.84,12.24-16.06,12.24-11.23,0-17.5-8.21-17.5-19.37,0-11.74,6.91-19.3,17.5-19.3s16.56,7.42,16.56,17.64c0,1.01,0,2.02-.07,2.59ZM200.3,333.49c0-6.55-4.25-12.1-11.81-12.1-7.13,0-12.02,5.26-12.39,12.1h24.19Z"/>
      <path class="cls-2" d="M261,336.65c0,12.03-7.2,19.23-16.2,19.23-6.41,0-10.22-3.17-12.38-7.06h-.14v18.94h-4.68v-49.47h4.68v5.9h.14c2.16-3.53,5.98-6.84,12.38-6.84,9,0,16.2,7.2,16.2,19.3ZM256.1,336.65c0-8.28-4.18-15.19-11.81-15.19-7.06,0-12.02,5.9-12.02,15.19s4.97,15.12,12.02,15.12c7.63,0,11.81-6.91,11.81-15.12Z"/>
      <path class="cls-2" d="M286.13,317.65v4.61c-.72-.14-1.51-.22-2.23-.22-6.62,0-11.52,5.33-11.52,12.46v20.52h-4.68v-36.72h4.68v7.49h.14c1.87-4.83,5.26-8.35,10.44-8.35,1.3,0,2.3.07,3.17.22Z"/>
      <path class="cls-2" d="M287.06,336.73c0-11.45,6.62-19.37,17.64-19.37s17.64,7.92,17.64,19.37-6.62,19.3-17.64,19.3-17.64-7.92-17.64-19.3ZM317.45,336.73c0-8.5-4.18-15.26-12.75-15.26s-12.75,6.77-12.75,15.26,4.18,15.19,12.75,15.19,12.75-6.77,12.75-15.19Z"/>
      <path class="cls-2" d="M322.91,367.69v-3.96c1.08.07,1.66.14,2.74.14,2.38,0,3.31-1.37,3.31-5.69v-39.89h4.68v40.25c0,7.13-3.31,9.43-7.2,9.43-1.22,0-2.09-.07-3.53-.29ZM328.24,310.95v-6.05h6.05v6.05h-6.05Z"/>
      <path class="cls-2" d="M374.33,337.59h-29.09c.07,7.42,4.03,14.4,12.67,14.4,7.56,0,10.51-5.18,11.23-8.21h4.75c-1.8,6.7-6.84,12.24-16.06,12.24-11.23,0-17.5-8.21-17.5-19.37,0-11.74,6.91-19.3,17.5-19.3s16.56,7.42,16.56,17.64c0,1.01,0,2.02-.07,2.59ZM369.43,333.49c0-6.55-4.25-12.1-11.81-12.1-7.13,0-12.02,5.26-12.38,12.1h24.19Z"/>
      <path class="cls-2" d="M405.86,355.02l-13.9-20.31-6.34,5.9v14.4h-4.68v-51.48h4.68v32.04l18.22-17.28h5.76l-14.47,13.47,16.27,23.26h-5.54Z"/>
      <path class="cls-2" d="M428.9,322.4h-7.42v23.19c0,4.54,1.01,5.62,4.61,5.62,1.15,0,1.73-.07,2.81-.14v3.96c-1.44.22-2.3.29-3.46.29-5.33,0-8.64-1.8-8.64-9.79v-23.11h-5.4v-4.1h5.4v-12.24h4.68v12.24h7.42v4.1Z"/>
    </g>
    <path class="cls-2" d="M513.19,322.63v29.59s5.68,0,5.68,0v-39.32s-39.32,0-39.32,0v5.68s29.6,0,29.6,0l-37.59,37.59,4.05,4.05,37.59-37.59Z"/>
  </g>
</svg>