<svg width="60" height="60" viewBox="0 0 60 60" fill="none" xmlns="http://www.w3.org/2000/svg">
<g clip-path="url(#clip0_430_38)">
<path d="M10 0.751953C4.47715 0.751953 0 5.22911 0 10.752V49.2482C0 54.771 4.47715 59.2482 10 59.2482H50C55.5228 59.2482 60 54.771 60 49.2482V10.752C60 5.22911 55.5228 0.751953 50 0.751953H10ZM2.49937 13.2513C2.49937 7.72848 6.97653 3.25133 12.4994 3.25133H47.4988C53.0216 3.25133 57.4987 7.72848 57.4987 13.2513V46.7469C57.4987 52.2698 53.0216 56.747 47.4988 56.747H12.4994C6.97653 56.747 2.49937 52.2698 2.49937 46.747V13.2513ZM14.5013 14.4526C14.5013 14.2857 14.8538 14.1601 15.0581 14.1601C17.2056 14.069 19.3549 14.0265 21.5044 14.0326C28.4381 14.0326 31.1325 17.8313 31.1325 22.6951C31.1325 29.0532 26.5238 31.7776 20.8781 31.7776C19.8049 31.7776 18.9356 32.5989 18.9356 33.6721V41.3382C18.9356 41.5426 18.8569 41.6307 18.6525 41.6307H14.7844C14.58 41.6307 14.5013 41.552 14.5013 41.3476V14.4526ZM18.9356 25.7036C18.9356 26.8473 19.8226 27.7745 20.9662 27.7745C23.8856 27.7745 26.64 26.7395 26.64 22.7851C26.64 19.6107 24.6675 18.0001 21.3281 18.0001C19.9739 18.0001 18.9356 19.119 18.9356 20.4732V25.7036ZM40.4541 24.752C40.4556 24.7532 40.4546 24.7557 40.4526 24.7557C38.4755 24.7578 37.8131 25.7522 37.8131 26.5726C37.8131 27.4801 38.2631 28.097 40.9088 29.4638C44.8256 31.3688 46.065 33.1745 46.065 35.8595C46.065 39.8532 43.0088 42.0019 38.8875 42.0019C36.6994 42.0019 34.8356 41.5426 33.7612 40.9276C33.6056 40.8488 33.5662 40.7232 33.5662 40.517V36.8457C33.5662 36.602 33.6844 36.5138 33.8494 36.6413C35.3458 37.6143 37.0932 38.1303 38.8781 38.1263C40.86 38.1263 41.6812 37.3051 41.6812 36.1838C41.6812 35.2763 41.1056 34.4945 38.595 33.1763C35.04 31.4776 33.555 29.7488 33.555 26.8576C33.555 23.6345 36.075 20.9588 40.44 20.9588C42.181 20.9588 43.5048 21.1767 44.3863 21.4519C44.7564 21.5674 45.1763 21.7637 45.1763 22.1513V25.5788C45.1763 25.74 45.097 25.8533 44.944 25.8509C44.8493 25.8493 44.7643 25.798 44.6814 25.7521C43.5734 25.139 41.9965 24.7492 40.4554 24.7482C40.4534 24.7482 40.4525 24.7507 40.4541 24.752Z" fill="black"/>
</g>
<defs>
<clipPath id="clip0_430_38">
<rect width="60" height="60" fill="white"/>
</clipPath>
</defs>
</svg>
