<svg width="66" height="62" viewBox="0 0 66 62" fill="none" xmlns="http://www.w3.org/2000/svg">
<g clip-path="url(#clip0_430_29)">
<path d="M46.8177 45.2053L28.9443 30.812L20.5943 24.0886M46.8177 45.2053V16.4186M46.8177 45.2053V52.472C46.8177 54.7386 45.9177 56.912 44.3177 58.5153M46.8177 16.4186L28.941 30.812M46.8177 16.4186V9.15531C46.8177 6.88864 45.9177 4.71197 44.3177 3.10864M44.3177 58.5153C43.5266 58.1131 42.7899 57.6086 42.1143 57.002L20.591 37.5353M44.3177 58.5153C45.6079 59.1742 47.0212 59.5488 48.4685 59.6138C49.9158 59.6787 51.3602 59.4326 52.7043 58.892L60.4843 55.7686C62.4077 54.9953 63.6677 53.132 63.6677 51.0586V10.5653C63.6677 8.49197 62.4077 6.62864 60.4843 5.85531L52.7043 2.73197C51.3602 2.19134 49.9158 1.94522 48.4685 2.0102C47.0212 2.07517 45.6079 2.44974 44.3177 3.10864M20.5943 24.0886L8.87434 14.652C8.06434 13.9986 6.89768 14.0653 6.16435 14.7986L2.59435 18.3853C2.40087 18.58 2.24882 18.8119 2.14735 19.0669C2.04589 19.322 1.99711 19.5949 2.00397 19.8693C2.01082 20.1437 2.07316 20.4139 2.18722 20.6635C2.30129 20.9132 2.46473 21.1372 2.66768 21.322L13.161 30.812M20.5943 24.0886L42.1143 4.62197C42.7899 4.01531 43.5266 3.51086 44.3177 3.10864M20.591 37.5353L8.87101 46.972C8.48052 47.2856 7.98804 47.444 7.48796 47.4169C6.98788 47.3899 6.51538 47.1792 6.16101 46.8253L2.59101 43.2386C2.39754 43.0439 2.24549 42.8121 2.14402 42.557C2.04256 42.302 1.99378 42.029 2.00063 41.7546C2.00749 41.4802 2.06982 41.2101 2.18389 40.9604C2.29796 40.7108 2.46139 40.4868 2.66435 40.302L13.161 30.812M20.591 37.5353L13.161 30.812" stroke="black" stroke-width="4" stroke-linejoin="round"/>
</g>
<defs>
<clipPath id="clip0_430_29">
<rect width="66" height="62" fill="white"/>
</clipPath>
</defs>
</svg>
