<svg width="106" height="80" viewBox="0 0 106 80" fill="none" xmlns="http://www.w3.org/2000/svg">
<path d="M87.5 78H17.8333C9.08542 78 2 70.9146 2 62.1667V17.8333L2.39583 14.2867C2.75208 12.7667 3.74956 9.505 6.63123 6.63917C11.025 2.26917 16.5429 2.02375 17.8254 2H87.4921C88.7667 2.02375 94.34 2.285 98.6862 6.63917C101.718 9.67125 102.66 13.21 102.874 14.0888C103.238 15.5929 103.325 16.8992 103.318 17.8333V62.1667C103.318 70.9146 96.2321 78 87.4842 78H87.5Z" stroke="black" stroke-width="4" stroke-miterlimit="10"/>
<path d="M2 14.6667H103.333" stroke="black" stroke-width="4" stroke-miterlimit="10"/>
<path d="M88.292 10.7083C89.6037 10.7083 90.667 9.64493 90.667 8.33325C90.667 7.02158 89.6037 5.95825 88.292 5.95825C86.9803 5.95825 85.917 7.02158 85.917 8.33325C85.917 9.64493 86.9803 10.7083 88.292 10.7083Z" fill="black"/>
<path d="M81.958 10.7083C83.2697 10.7083 84.333 9.64493 84.333 8.33325C84.333 7.02158 83.2697 5.95825 81.958 5.95825C80.6463 5.95825 79.583 7.02158 79.583 8.33325C79.583 9.64493 80.6463 10.7083 81.958 10.7083Z" fill="black"/>
<path d="M75.625 10.7083C76.9367 10.7083 78 9.64493 78 8.33325C78 7.02158 76.9367 5.95825 75.625 5.95825C74.3133 5.95825 73.25 7.02158 73.25 8.33325C73.25 9.64493 74.3133 10.7083 75.625 10.7083Z" fill="black"/>
</svg>
