<svg width="24" height="24" viewBox="0 0 24 24" fill="none" xmlns="http://www.w3.org/2000/svg">
<path d="M12.0901 1.50011C7.95012 1.50011 4.06512 3.93011 2.28012 7.80011H7.30512V8.35511C5.76012 8.17511 5.89512 8.97011 6.12012 9.81011L9.42012 18.0301L11.8351 12.3751L10.7251 9.72011C10.3201 9.01511 10.3201 8.22011 8.65512 8.29511L8.68512 7.78511H16.0501V8.37011C15.1951 8.41511 14.1451 8.16011 14.7001 9.91511L17.6851 17.7001L19.3201 13.1551C19.8601 11.2501 19.3501 9.42011 18.7201 7.62011C18.3751 6.42011 18.5251 5.41511 20.1151 5.01011C17.7001 2.56511 14.8651 1.48511 12.1201 1.48511L12.0901 1.50011ZM22.1101 8.68511L17.3401 21.0751C18.6601 19.9351 20.0101 19.5301 21.6601 16.3801C22.7551 13.7701 22.6501 11.3401 22.1101 8.68511ZM1.78512 8.88011C1.32012 12.5401 1.36512 13.6051 2.52012 16.5901C4.02012 19.4551 5.19012 20.0551 6.84012 21.1801L1.78512 8.89511V8.88011ZM12.2851 13.5151L8.74512 22.0051C11.2351 22.7101 13.4551 22.6201 15.4801 21.8401L12.2851 13.5151Z" fill="white"/>
</svg>
