<svg width="134" height="36" viewBox="0 0 134 36" fill="none" xmlns="http://www.w3.org/2000/svg">
<path d="M1.328 15V3.48H5.352C8.68 3.48 10.856 5.672 10.856 9.24C10.856 12.808 8.68 15 5.352 15H1.328ZM5.328 4.648H2.792V13.832H5.328C7.824 13.832 9.384 12.12 9.384 9.24C9.384 6.36 7.824 4.648 5.328 4.648ZM12.6534 15H11.2134V14.76L15.5334 3.48H17.1814L21.4934 14.76V15H20.0454L18.8374 11.744H13.8614L12.6534 15ZM16.2694 5.2L14.2614 10.584H18.4374L16.4294 5.2H16.2694ZM22.9224 15V3.48H24.5784L30.4024 12.736H30.5624V3.48H31.9944V15H30.3384L24.5064 5.744H24.3464V15H22.9224ZM34.3368 15V3.48H35.8008V15H34.3368ZM38.1418 15V3.48H46.2138V4.648H39.6058V8.512H45.4138V9.68H39.6058V13.832H46.3738V15H38.1418ZM48.0249 15V3.48H49.4889V13.824H55.7289V15H48.0249Z" fill="#0E0E0E"/>
<path d="M1.328 32V20.48H9.176V21.648H2.792V25.696H8.464V26.864H2.792V32H1.328ZM19.081 28.976L19.209 30.2C19.297 30.92 19.417 31.344 19.681 31.76V32H18.185C17.961 31.544 17.833 31.096 17.761 30.312L17.665 29.184C17.537 27.704 16.921 27.12 15.017 27.12H12.097V32H10.633V20.48H15.817C17.929 20.48 19.537 21.528 19.537 23.608C19.537 25.232 18.641 26.128 17.369 26.456V26.616C18.585 26.912 18.937 27.648 19.081 28.976ZM15.665 21.648H12.097V25.952H15.665C17.121 25.952 18.097 25.264 18.097 23.8C18.097 22.344 17.121 21.648 15.665 21.648ZM21.3599 32V20.48H29.4319V21.648H22.8239V25.512H28.6319V26.68H22.8239V30.832H29.5919V32H21.3599ZM31.243 32V20.48H35.267C38.595 20.48 40.771 22.672 40.771 26.24C40.771 29.808 38.595 32 35.267 32H31.243ZM35.243 21.648H32.707V30.832H35.243C37.739 30.832 39.299 29.12 39.299 26.24C39.299 23.36 37.739 21.648 35.243 21.648ZM42.5168 32V20.48H50.5888V21.648H43.9808V25.512H49.7888V26.68H43.9808V30.832H50.7488V32H42.5168ZM60.8479 28.976L60.9759 30.2C61.0639 30.92 61.1839 31.344 61.4479 31.76V32H59.9519C59.7279 31.544 59.5999 31.096 59.5279 30.312L59.4319 29.184C59.3039 27.704 58.6879 27.12 56.7839 27.12H53.8639V32H52.3999V20.48H57.5839C59.6959 20.48 61.3039 21.528 61.3039 23.608C61.3039 25.232 60.4079 26.128 59.1359 26.456V26.616C60.3519 26.912 60.7039 27.648 60.8479 28.976ZM57.4319 21.648H53.8639V25.952H57.4319C58.8879 25.952 59.8639 25.264 59.8639 23.8C59.8639 22.344 58.8879 21.648 57.4319 21.648ZM63.1268 32V20.48H64.5908V32H63.1268ZM76.0118 20.72L70.8358 25.56L76.1078 31.76V32H74.4758L69.8278 26.504L68.3958 27.84V32H66.9318V20.48H68.3958V25.88H68.5558L74.3318 20.48H76.0118V20.72ZM76.8368 23.456C76.8368 21.584 78.4368 20.296 81.1008 20.296C83.7568 20.296 85.4208 21.56 85.5968 23.608V23.848H84.1968C84.1008 22.128 82.7968 21.432 81.1248 21.432C79.4528 21.432 78.2848 22.144 78.2848 23.416C78.2848 24.664 79.3248 25.104 80.8528 25.408L82.2368 25.68C84.3168 26.096 85.8368 26.824 85.8368 28.848C85.8368 30.904 84.1968 32.184 81.4368 32.184C78.6928 32.184 76.8048 30.904 76.5968 28.832V28.592H78.0128C78.2288 30.344 79.6688 31.048 81.4288 31.048C83.1728 31.048 84.3888 30.344 84.3888 28.936C84.3888 27.56 83.2368 27.192 81.6848 26.88L80.3008 26.608C78.2768 26.208 76.8368 25.344 76.8368 23.456ZM87.5418 32V20.48H89.5498L93.4698 30.112H93.6298L97.5418 20.48H99.5578V32H98.1658V22.72H98.0058L94.2298 32H92.8618L89.0858 22.72H88.9258V32H87.5418ZM101.294 26.24C101.294 22.48 103.518 20.288 106.766 20.288C110.006 20.288 112.23 22.48 112.23 26.24C112.23 30 110.006 32.192 106.766 32.192C103.518 32.192 101.294 30 101.294 26.24ZM102.766 26.24C102.766 29.248 104.334 31.008 106.766 31.008C109.198 31.008 110.758 29.248 110.758 26.24C110.758 23.232 109.198 21.472 106.766 21.472C104.334 21.472 102.766 23.232 102.766 26.24ZM113.58 23.456C113.58 21.584 115.18 20.296 117.844 20.296C120.5 20.296 122.164 21.56 122.34 23.608V23.848H120.94C120.844 22.128 119.54 21.432 117.868 21.432C116.196 21.432 115.028 22.144 115.028 23.416C115.028 24.664 116.068 25.104 117.596 25.408L118.98 25.68C121.06 26.096 122.58 26.824 122.58 28.848C122.58 30.904 120.94 32.184 118.18 32.184C115.436 32.184 113.548 30.904 113.34 28.832V28.592H114.756C114.972 30.344 116.412 31.048 118.172 31.048C119.916 31.048 121.132 30.344 121.132 28.936C121.132 27.56 119.98 27.192 118.428 26.88L117.044 26.608C115.02 26.208 113.58 25.344 113.58 23.456ZM124.285 32V20.48H132.357V21.648H125.749V25.512H131.557V26.68H125.749V30.832H132.517V32H124.285Z" fill="#0E0E0E"/>
</svg>
