<svg width="523" height="146" viewBox="0 0 523 146" fill="none" xmlns="http://www.w3.org/2000/svg">
<path d="M5.063 56V12.08H20.4045C33.0925 12.08 41.3885 20.437 41.3885 34.04C41.3885 47.643 33.0925 56 20.4045 56H5.063ZM20.313 16.533H10.6445V51.547H20.313C29.829 51.547 35.7765 45.02 35.7765 34.04C35.7765 23.06 29.829 16.533 20.313 16.533ZM49.461 56H43.971V55.085L60.441 12.08H66.724L83.1635 55.085V56H77.643L73.0375 43.5865H54.0665L49.461 56ZM63.247 18.6375L55.5915 39.164H71.5125L63.857 18.6375H63.247ZM89.8316 56V12.08H96.1451L118.349 47.3685H118.959V12.08H124.419V56H118.105L95.8706 20.7115H95.2606V56H89.8316ZM134.569 56V12.08H140.15V56H134.569ZM150.295 56V12.08H181.07V16.533H155.877V31.2645H178.02V35.7175H155.877V51.547H181.68V56H150.295ZM189.195 56V12.08H194.776V51.5165H218.566V56H189.195Z" fill="#141414"/>
<path d="M5.063 129V85.08H34.9835V89.533H10.6445V104.966H32.269V109.419H10.6445V129H5.063ZM73.9663 117.471L74.4543 122.137C74.7898 124.882 75.2473 126.499 76.2538 128.085V129H70.5503C69.6963 127.261 69.2083 125.553 68.9338 122.564L68.5678 118.264C68.0798 112.621 65.7313 110.395 58.4723 110.395H47.3398V129H41.7583V85.08H61.5223C69.5743 85.08 75.7048 89.0755 75.7048 97.0055C75.7048 103.197 72.2888 106.613 67.4393 107.863V108.473C72.0753 109.602 73.4173 112.408 73.9663 117.471ZM60.9428 89.533H47.3398V105.942H60.9428C66.4938 105.942 70.2148 103.319 70.2148 97.7375C70.2148 92.1865 66.4938 89.533 60.9428 89.533ZM83.8745 129V85.08H114.649V89.533H89.456V104.264H111.599V108.717H89.456V124.547H115.259V129H83.8745ZM122.774 129V85.08H138.115C150.803 85.08 159.099 93.437 159.099 107.04C159.099 120.643 150.803 129 138.115 129H122.774ZM138.024 89.533H128.355V124.547H138.024C147.54 124.547 153.487 118.02 153.487 107.04C153.487 96.06 147.54 89.533 138.024 89.533ZM166.975 129V85.08H197.75V89.533H172.557V104.264H194.7V108.717H172.557V124.547H198.36V129H166.975ZM238.083 117.471L238.571 122.137C238.906 124.882 239.364 126.499 240.37 128.085V129H234.667C233.813 127.261 233.325 125.553 233.05 122.564L232.684 118.264C232.196 112.621 229.848 110.395 222.589 110.395H211.456V129H205.875V85.08H225.639C233.691 85.08 239.821 89.0755 239.821 97.0055C239.821 103.197 236.405 106.613 231.556 107.863V108.473C236.192 109.602 237.534 112.408 238.083 117.471ZM225.059 89.533H211.456V105.942H225.059C230.61 105.942 234.331 103.319 234.331 97.7375C234.331 92.1865 230.61 89.533 225.059 89.533ZM247.991 129V85.08H253.572V129H247.991ZM298.335 85.995L278.601 104.447L298.701 128.085V129H292.479L274.758 108.046L269.299 113.14V129H263.717V85.08H269.299V105.667H269.909L291.93 85.08H298.335V85.995ZM302.7 96.426C302.7 89.289 308.8 84.3785 318.957 84.3785C329.083 84.3785 335.427 89.1975 336.098 97.0055V97.9205H330.76C330.394 91.363 325.423 88.7095 319.048 88.7095C312.674 88.7095 308.221 91.424 308.221 96.2735C308.221 101.031 312.186 102.709 318.011 103.868L323.288 104.905C331.218 106.491 337.013 109.266 337.013 116.983C337.013 124.821 330.76 129.702 320.238 129.702C309.776 129.702 302.578 124.821 301.785 116.922V116.007H307.184C308.007 122.686 313.497 125.37 320.207 125.37C326.856 125.37 331.492 122.686 331.492 117.318C331.492 112.072 327.1 110.669 321.183 109.48L315.907 108.443C308.19 106.918 302.7 103.624 302.7 96.426ZM344.733 129V85.08H352.388L367.333 121.802H367.943L382.858 85.08H390.544V129H385.237V93.62H384.627L370.231 129H365.015L350.619 93.62H350.009V129H344.733ZM398.383 107.04C398.383 92.705 406.862 84.348 419.245 84.348C431.598 84.348 440.077 92.705 440.077 107.04C440.077 121.375 431.598 129.732 419.245 129.732C406.862 129.732 398.383 121.375 398.383 107.04ZM403.995 107.04C403.995 118.508 409.973 125.218 419.245 125.218C428.517 125.218 434.465 118.508 434.465 107.04C434.465 95.572 428.517 88.862 419.245 88.862C409.973 88.862 403.995 95.572 403.995 107.04ZM446.443 96.426C446.443 89.289 452.543 84.3785 462.7 84.3785C472.826 84.3785 479.17 89.1975 479.841 97.0055V97.9205H474.503C474.137 91.363 469.166 88.7095 462.791 88.7095C456.417 88.7095 451.964 91.424 451.964 96.2735C451.964 101.031 455.929 102.709 461.754 103.868L467.031 104.905C474.961 106.491 480.756 109.266 480.756 116.983C480.756 124.821 474.503 129.702 463.981 129.702C453.519 129.702 446.321 124.821 445.528 116.922V116.007H450.927C451.75 122.686 457.24 125.37 463.95 125.37C470.599 125.37 475.235 122.686 475.235 117.318C475.235 112.072 470.843 110.669 464.926 109.48L459.65 108.443C451.933 106.918 446.443 103.624 446.443 96.426ZM488.476 129V85.08H519.251V89.533H494.058V104.264H516.201V108.717H494.058V124.547H519.861V129H488.476Z" fill="#141414"/>
</svg>
