<svg width="250" height="70" viewBox="0 0 250 70" fill="none" xmlns="http://www.w3.org/2000/svg">
<path d="M2.49 28V6.4H10.035C16.275 6.4 20.355 10.51 20.355 17.2C20.355 23.89 16.275 28 10.035 28H2.49ZM9.99 8.59H5.235V25.81H9.99C14.67 25.81 17.595 22.6 17.595 17.2C17.595 11.8 14.67 8.59 9.99 8.59ZM23.7251 28H21.0251V27.55L29.1251 6.4H32.2151L40.3001 27.55V28H37.5851L35.3201 21.895H25.9901L23.7251 28ZM30.5051 9.625L26.7401 19.72H34.5701L30.8051 9.625H30.5051ZM42.9795 28V6.4H46.0845L57.0045 23.755H57.3045V6.4H59.9895V28H56.8845L45.9495 10.645H45.6495V28H42.9795ZM64.3814 28V6.4H67.1264V28H64.3814ZM71.5158 28V6.4H86.6508V8.59H74.2608V15.835H85.1508V18.025H74.2608V25.81H86.9508V28H71.5158ZM90.0466 28V6.4H92.7916V25.795H104.492V28H90.0466Z" fill="#0E0E0E"/>
<path d="M2.49 62V40.4H17.205V42.59H5.235V50.18H15.87V52.37H5.235V62H2.49ZM35.7769 56.33L36.0169 58.625C36.1819 59.975 36.4069 60.77 36.9019 61.55V62H34.0969C33.6769 61.145 33.4369 60.305 33.3019 58.835L33.1219 56.72C32.8819 53.945 31.7269 52.85 28.1569 52.85H22.6819V62H19.9369V40.4H29.6569C33.6169 40.4 36.6319 42.365 36.6319 46.265C36.6319 49.31 34.9519 50.99 32.5669 51.605V51.905C34.8469 52.46 35.5069 53.84 35.7769 56.33ZM29.3719 42.59H22.6819V50.66H29.3719C32.1019 50.66 33.9319 49.37 33.9319 46.625C33.9319 43.895 32.1019 42.59 29.3719 42.59ZM40.0498 62V40.4H55.1848V42.59H42.7948V49.835H53.6848V52.025H42.7948V59.81H55.4848V62H40.0498ZM58.5806 62V40.4H66.1256C72.3656 40.4 76.4456 44.51 76.4456 51.2C76.4456 57.89 72.3656 62 66.1256 62H58.5806ZM66.0806 42.59H61.3256V59.81H66.0806C70.7606 59.81 73.6856 56.6 73.6856 51.2C73.6856 45.8 70.7606 42.59 66.0806 42.59ZM79.7189 62V40.4H94.8539V42.59H82.4639V49.835H93.3539V52.025H82.4639V59.81H95.1539V62H79.7189ZM114.09 56.33L114.33 58.625C114.495 59.975 114.72 60.77 115.215 61.55V62H112.41C111.99 61.145 111.75 60.305 111.615 58.835L111.435 56.72C111.195 53.945 110.04 52.85 106.47 52.85H100.995V62H98.2498V40.4H107.97C111.93 40.4 114.945 42.365 114.945 46.265C114.945 49.31 113.265 50.99 110.88 51.605V51.905C113.16 52.46 113.82 53.84 114.09 56.33ZM107.685 42.59H100.995V50.66H107.685C110.415 50.66 112.245 49.37 112.245 46.625C112.245 43.895 110.415 42.59 107.685 42.59ZM118.363 62V40.4H121.108V62H118.363ZM142.522 40.85L132.817 49.925L142.702 61.55V62H139.642L130.927 51.695L128.242 54.2V62H125.497V40.4H128.242V50.525H128.542L139.372 40.4H142.522V40.85ZM144.069 45.98C144.069 42.47 147.069 40.055 152.064 40.055C157.044 40.055 160.164 42.425 160.494 46.265V46.715H157.869C157.689 43.49 155.244 42.185 152.109 42.185C148.974 42.185 146.784 43.52 146.784 45.905C146.784 48.245 148.734 49.07 151.599 49.64L154.194 50.15C158.094 50.93 160.944 52.295 160.944 56.09C160.944 59.945 157.869 62.345 152.694 62.345C147.549 62.345 144.009 59.945 143.619 56.06V55.61H146.274C146.679 58.895 149.379 60.215 152.679 60.215C155.949 60.215 158.229 58.895 158.229 56.255C158.229 53.675 156.069 52.985 153.159 52.4L150.564 51.89C146.769 51.14 144.069 49.52 144.069 45.98ZM164.141 62V40.4H167.906L175.256 58.46H175.556L182.891 40.4H186.671V62H184.061V44.6H183.761L176.681 62H174.116L167.036 44.6H166.736V62H164.141ZM189.926 51.2C189.926 44.15 194.096 40.04 200.186 40.04C206.261 40.04 210.431 44.15 210.431 51.2C210.431 58.25 206.261 62.36 200.186 62.36C194.096 62.36 189.926 58.25 189.926 51.2ZM192.686 51.2C192.686 56.84 195.626 60.14 200.186 60.14C204.746 60.14 207.671 56.84 207.671 51.2C207.671 45.56 204.746 42.26 200.186 42.26C195.626 42.26 192.686 45.56 192.686 51.2ZM212.962 45.98C212.962 42.47 215.962 40.055 220.957 40.055C225.937 40.055 229.057 42.425 229.387 46.265V46.715H226.762C226.582 43.49 224.137 42.185 221.002 42.185C217.867 42.185 215.677 43.52 215.677 45.905C215.677 48.245 217.627 49.07 220.492 49.64L223.087 50.15C226.987 50.93 229.837 52.295 229.837 56.09C229.837 59.945 226.762 62.345 221.587 62.345C216.442 62.345 212.902 59.945 212.512 56.06V55.61H215.167C215.572 58.895 218.272 60.215 221.572 60.215C224.842 60.215 227.122 58.895 227.122 56.255C227.122 53.675 224.962 52.985 222.052 52.4L219.457 51.89C215.662 51.14 212.962 49.52 212.962 45.98ZM233.034 62V40.4H248.169V42.59H235.779V49.835H246.669V52.025H235.779V59.81H248.469V62H233.034Z" fill="#0E0E0E"/>
</svg>
