<svg width="247" height="23" viewBox="0 0 247 23" fill="none" xmlns="http://www.w3.org/2000/svg">
<path d="M0.49 22V0.399999H15.205V2.59H3.235V10.18H13.87V12.37H3.235V22H0.49ZM33.7769 16.33L34.0169 18.625C34.1819 19.975 34.4069 20.77 34.9019 21.55V22H32.0969C31.6769 21.145 31.4369 20.305 31.3019 18.835L31.1219 16.72C30.8819 13.945 29.7269 12.85 26.1569 12.85H20.6819V22H17.9369V0.399999H27.6569C31.6169 0.399999 34.6319 2.365 34.6319 6.265C34.6319 9.31 32.9519 10.99 30.5669 11.605V11.905C32.8469 12.46 33.5069 13.84 33.7769 16.33ZM27.3719 2.59H20.6819V10.66H27.3719C30.1019 10.66 31.9319 9.37 31.9319 6.625C31.9319 3.895 30.1019 2.59 27.3719 2.59ZM38.0498 22V0.399999H53.1848V2.59H40.7948V9.835H51.6848V12.025H40.7948V19.81H53.4848V22H38.0498ZM56.5806 22V0.399999H64.1256C70.3656 0.399999 74.4456 4.51 74.4456 11.2C74.4456 17.89 70.3656 22 64.1256 22H56.5806ZM64.0806 2.59H59.3256V19.81H64.0806C68.7606 19.81 71.6856 16.6 71.6856 11.2C71.6856 5.8 68.7606 2.59 64.0806 2.59ZM77.7189 22V0.399999H92.8539V2.59H80.4639V9.835H91.3539V12.025H80.4639V19.81H93.1539V22H77.7189ZM112.09 16.33L112.33 18.625C112.495 19.975 112.72 20.77 113.215 21.55V22H110.41C109.99 21.145 109.75 20.305 109.615 18.835L109.435 16.72C109.195 13.945 108.04 12.85 104.47 12.85H98.9948V22H96.2498V0.399999H105.97C109.93 0.399999 112.945 2.365 112.945 6.265C112.945 9.31 111.265 10.99 108.88 11.605V11.905C111.16 12.46 111.82 13.84 112.09 16.33ZM105.685 2.59H98.9948V10.66H105.685C108.415 10.66 110.245 9.37 110.245 6.625C110.245 3.895 108.415 2.59 105.685 2.59ZM116.363 22V0.399999H119.108V22H116.363ZM140.522 0.849999L130.817 9.925L140.702 21.55V22H137.642L128.927 11.695L126.242 14.2V22H123.497V0.399999H126.242V10.525H126.542L137.372 0.399999H140.522V0.849999ZM142.069 5.98C142.069 2.47 145.069 0.0549991 150.064 0.0549991C155.044 0.0549991 158.164 2.425 158.494 6.265V6.715H155.869C155.689 3.49 153.244 2.185 150.109 2.185C146.974 2.185 144.784 3.52 144.784 5.905C144.784 8.245 146.734 9.07 149.599 9.64L152.194 10.15C156.094 10.93 158.944 12.295 158.944 16.09C158.944 19.945 155.869 22.345 150.694 22.345C145.549 22.345 142.009 19.945 141.619 16.06V15.61H144.274C144.679 18.895 147.379 20.215 150.679 20.215C153.949 20.215 156.229 18.895 156.229 16.255C156.229 13.675 154.069 12.985 151.159 12.4L148.564 11.89C144.769 11.14 142.069 9.52 142.069 5.98ZM162.141 22V0.399999H165.906L173.256 18.46H173.556L180.891 0.399999H184.671V22H182.061V4.6H181.761L174.681 22H172.116L165.036 4.6H164.736V22H162.141ZM187.926 11.2C187.926 4.15 192.096 0.0399984 198.186 0.0399984C204.261 0.0399984 208.431 4.15 208.431 11.2C208.431 18.25 204.261 22.36 198.186 22.36C192.096 22.36 187.926 18.25 187.926 11.2ZM190.686 11.2C190.686 16.84 193.626 20.14 198.186 20.14C202.746 20.14 205.671 16.84 205.671 11.2C205.671 5.56 202.746 2.26 198.186 2.26C193.626 2.26 190.686 5.56 190.686 11.2ZM210.962 5.98C210.962 2.47 213.962 0.0549991 218.957 0.0549991C223.937 0.0549991 227.057 2.425 227.387 6.265V6.715H224.762C224.582 3.49 222.137 2.185 219.002 2.185C215.867 2.185 213.677 3.52 213.677 5.905C213.677 8.245 215.627 9.07 218.492 9.64L221.087 10.15C224.987 10.93 227.837 12.295 227.837 16.09C227.837 19.945 224.762 22.345 219.587 22.345C214.442 22.345 210.902 19.945 210.512 16.06V15.61H213.167C213.572 18.895 216.272 20.215 219.572 20.215C222.842 20.215 225.122 18.895 225.122 16.255C225.122 13.675 222.962 12.985 220.052 12.4L217.457 11.89C213.662 11.14 210.962 9.52 210.962 5.98ZM231.034 22V0.399999H246.169V2.59H233.779V9.835H244.669V12.025H233.779V19.81H246.469V22H231.034Z" fill="#0E0E0E"/>
</svg>
