<svg width="103" height="22" viewBox="0 0 103 22" fill="none" xmlns="http://www.w3.org/2000/svg">
<path d="M0.49 22V0.399999H8.035C14.275 0.399999 18.355 4.51 18.355 11.2C18.355 17.89 14.275 22 8.035 22H0.49ZM7.99 2.59H3.235V19.81H7.99C12.67 19.81 15.595 16.6 15.595 11.2C15.595 5.8 12.67 2.59 7.99 2.59ZM21.7251 22H19.0251V21.55L27.1251 0.399999H30.2151L38.3001 21.55V22H35.5851L33.3201 15.895H23.9901L21.7251 22ZM28.5051 3.625L24.7401 13.72H32.5701L28.8051 3.625H28.5051ZM40.9795 22V0.399999H44.0845L55.0045 17.755H55.3045V0.399999H57.9895V22H54.8845L43.9495 4.645H43.6495V22H40.9795ZM62.3814 22V0.399999H65.1264V22H62.3814ZM69.5158 22V0.399999H84.6508V2.59H72.2608V9.835H83.1508V12.025H72.2608V19.81H84.9508V22H69.5158ZM88.0466 22V0.399999H90.7916V19.795H102.492V22H88.0466Z" fill="#0E0E0E"/>
</svg>
