<svg width="127" height="136" viewBox="0 0 127 136" fill="none" xmlns="http://www.w3.org/2000/svg">
<mask id="path-1-inside-1_310_258" fill="white">
<path d="M106.274 82.7491C113.033 86.3783 118.114 91.9781 120.853 98.698C107.264 100.723 93.431 94.7027 86.4618 83.4598C85.5644 82.006 84.807 80.4984 84.1776 78.9692C91.7761 77.8169 99.5261 79.1307 106.285 82.7491H106.274ZM63.4683 129.53C54.7859 119.601 53.4574 105.439 60.4382 94.1858C61.3356 92.732 62.3611 91.3643 63.4799 90.0828C68.3513 95.6396 71.0084 102.543 71.0084 109.801C71.0084 117.059 68.3513 123.962 63.4683 129.53ZM28.2029 94.9073C21.4435 98.5365 13.6935 99.8288 6.07175 98.6872C10.9898 86.7229 23.4947 78.5707 37.4447 78.5707C39.2277 78.5707 41.0224 78.7107 42.7705 78.98C40.0435 85.6783 34.9506 91.2781 28.2029 94.9073ZM20.6627 52.9512C13.8917 49.322 8.81047 43.7114 6.08341 37.0023C19.6604 34.9777 33.5056 40.9761 40.4747 52.2297C41.3721 53.6835 42.1296 55.1912 42.7705 56.7311C35.1721 57.8834 27.4221 56.5804 20.6627 52.9512ZM63.4683 6.17062C72.1506 16.0997 73.4791 30.2609 66.51 41.5145C65.6126 42.9576 64.5871 44.3252 63.4683 45.6067C58.5968 40.0392 55.9397 33.1362 55.9397 25.8995C55.9397 18.6627 58.5969 11.7274 63.4799 6.17062H63.4683ZM77.5232 60.3065C76.3694 65.2925 76.3694 70.4293 77.5232 75.3939C72.3138 76.9554 67.5239 79.5292 63.4799 82.9322C59.401 79.5184 54.6227 76.9446 49.4367 75.3831C50.5904 70.3863 50.5904 65.2494 49.4367 60.2849C54.6577 58.7234 59.4359 56.1496 63.4799 52.7466C67.5472 56.1604 72.3254 58.7342 77.5232 60.2957V60.3065ZM98.7336 40.8038C105.493 37.1746 113.255 35.8608 120.865 37.0239C115.958 48.9882 103.442 57.1404 89.4918 57.1404C87.7088 57.1404 85.9141 57.0004 84.166 56.7311C86.893 50.022 91.9742 44.4329 98.7336 40.793V40.8038ZM82.5 61.5658C84.7493 61.9427 87.196 62.0618 89.5035 62.0618C106.763 62.0618 122.135 51.282 126.878 35.85C126.878 35.8392 126.878 35.8177 126.878 35.807C126.878 35.7962 126.89 35.7854 126.89 35.7746C126.902 35.6992 126.913 35.6347 126.925 35.5593C126.937 35.4839 126.96 35.3977 126.96 35.3223C126.96 35.2362 126.96 35.1501 126.96 35.0747C126.96 34.9993 126.96 34.9131 126.948 34.8377C126.937 34.7623 126.913 34.6762 126.89 34.6008C126.878 34.5255 126.855 34.45 126.832 34.3747C126.797 34.2993 126.762 34.2347 126.727 34.1593C126.692 34.0839 126.657 34.0193 126.622 33.9547C126.575 33.8793 126.529 33.8255 126.482 33.7501C126.435 33.6855 126.389 33.6208 126.33 33.567C126.272 33.5131 126.202 33.4593 126.144 33.3947C126.086 33.3409 126.028 33.287 125.958 33.2332C125.888 33.1793 125.806 33.1362 125.736 33.0931C125.666 33.0501 125.596 33.007 125.526 32.9747C125.445 32.9316 125.352 32.9101 125.258 32.8778C125.2 32.8563 125.13 32.824 125.06 32.8024C125.049 32.8024 125.037 32.8024 125.025 32.8024C125.014 32.8024 124.99 32.7917 124.979 32.7917C115.143 30.4871 104.887 31.8116 96.0998 36.5392C88.0701 40.8469 82.0798 47.5559 78.9915 55.5788C74.6212 54.2327 70.6006 52.0789 67.151 49.2144C68.6194 47.5883 69.948 45.8437 71.1018 43.9914C79.7374 30.0671 77.3833 12.2875 65.3795 0.753844C65.3679 0.753844 65.3562 0.743054 65.3445 0.732285C65.3445 0.721516 65.3329 0.710781 65.3212 0.700012C65.2629 0.646167 65.2047 0.613865 65.1464 0.570789C65.0765 0.516944 65.0066 0.463073 64.9367 0.409228C64.8668 0.366152 64.7852 0.33386 64.7037 0.290784C64.6221 0.258477 64.5521 0.215362 64.4705 0.183055C64.3889 0.150748 64.2957 0.129202 64.2141 0.107664C64.1326 0.0861258 64.0625 0.0646009 63.981 0.0538319C63.8877 0.0430629 63.8062 0.0323281 63.7129 0.0215591C63.6314 0.0215591 63.5615 0 63.4799 0C63.3867 0 63.2935 0.01079 63.2119 0.0215591C63.1303 0.0215591 63.0603 0.0322939 62.9787 0.0538319C62.8855 0.0646009 62.8039 0.0969053 62.7107 0.118443C62.6291 0.139981 62.5593 0.161517 62.4893 0.183055C62.3961 0.215362 62.3144 0.258488 62.2445 0.301564C62.1746 0.333871 62.1047 0.366152 62.0348 0.409228C61.9532 0.463073 61.8832 0.516889 61.8133 0.581503C61.7551 0.624579 61.6968 0.656936 61.6501 0.700012C61.6501 0.710781 61.6386 0.721516 61.627 0.732285C61.6153 0.732285 61.6036 0.743085 61.592 0.764623C54.5412 7.5491 50.6604 16.4766 50.6604 25.921C50.6604 34.5147 53.9002 42.6884 59.8205 49.2252C56.3942 52.079 52.3735 54.2327 47.9799 55.5681C47.1991 53.5758 46.2435 51.6374 45.0897 49.7851C36.454 35.8716 18.7398 28.8717 2.00447 32.7809C1.99282 32.7809 1.98112 32.7809 1.95781 32.7917C1.94616 32.7917 1.93447 32.7917 1.92281 32.7917C1.85289 32.8024 1.78306 32.8455 1.72479 32.867C1.64321 32.8993 1.55001 32.9208 1.46843 32.9639C1.38685 32.9962 1.32851 33.0501 1.24693 33.0931C1.16535 33.1362 1.09549 33.1793 1.02557 33.2224C0.955643 33.2654 0.897332 33.3301 0.839062 33.3839C0.780791 33.4378 0.710827 33.4916 0.652556 33.5455C0.594286 33.6101 0.547664 33.6747 0.501047 33.7393C0.454431 33.8039 0.396166 33.8685 0.361204 33.9332C0.314587 34.0085 0.291319 34.0732 0.256356 34.1486C0.221394 34.2239 0.186471 34.2885 0.151509 34.3639C0.128201 34.4393 0.104836 34.5147 0.0931817 34.5901C0.0815276 34.6654 0.0465083 34.7409 0.0348542 34.827C0.0232001 34.9024 0.0349851 34.9885 0.023331 35.0639C0.023331 35.15 0.0116769 35.2254 0.023331 35.3116C0.023331 35.3977 0.0465311 35.4731 0.0581852 35.5593C0.0698393 35.6347 0.0698735 35.6992 0.0931817 35.7746C0.0931817 35.7854 0.104847 35.7962 0.104847 35.807C0.104847 35.8177 0.104847 35.8285 0.104847 35.8393C2.86687 44.9068 9.2417 52.5097 18.0405 57.2373C24.0191 60.4465 30.6736 62.0941 37.398 62.0941C39.6939 62.0941 42.0131 61.8895 44.2973 61.5126C45.2413 65.7017 45.2413 70.0201 44.2973 74.2308C42.0481 73.8539 39.7638 73.6601 37.4563 73.6601C20.1966 73.6601 4.82474 84.4398 0.0815162 99.8826C0.0815162 99.8933 0.0815162 99.9041 0.0815162 99.9256C0.0815162 99.9364 0.0698507 99.9472 0.0698507 99.9687C0.0581966 100.033 0.0581624 100.109 0.0348542 100.173C0.0232001 100.26 0 100.346 0 100.421C0 100.496 0 100.583 0 100.658C0 100.744 1.13901e-05 100.819 0.0116655 100.906C0.0233196 100.981 0.0465425 101.067 0.0698507 101.132C0.0815048 101.207 0.10487 101.293 0.128178 101.358C0.16314 101.433 0.198063 101.498 0.233025 101.573C0.267988 101.649 0.291256 101.713 0.337873 101.778C0.384489 101.853 0.4311 101.907 0.477716 101.972C0.524333 102.036 0.570955 102.101 0.629225 102.155C0.687496 102.219 0.75746 102.273 0.815731 102.327C0.874002 102.381 0.932312 102.435 1.00224 102.489C1.07216 102.543 1.14202 102.575 1.2236 102.618C1.29352 102.661 1.36352 102.704 1.4451 102.747C1.52668 102.779 1.61988 102.812 1.70145 102.844C1.77138 102.866 1.84136 102.898 1.89963 102.919C1.91128 102.919 1.93449 102.919 1.94615 102.919C1.9578 102.919 1.98115 102.93 1.99281 102.93C5.13942 103.663 8.33269 104.029 11.5026 104.029C18.2503 104.029 24.8932 102.381 30.8717 99.1719C38.8898 94.8643 44.8916 88.1551 47.9799 80.1322C52.3385 81.4675 56.3709 83.6321 59.8205 86.4967C58.3521 88.1228 57.0352 89.8674 55.8697 91.7196C47.2341 105.644 49.5882 123.424 61.592 134.957C61.6036 134.968 61.6153 134.968 61.627 134.99C61.627 134.99 61.6385 135.011 61.6618 135.022C61.7201 135.076 61.8017 135.119 61.86 135.173C61.9183 135.216 61.9766 135.27 62.0465 135.302C62.1397 135.356 62.2329 135.399 62.3262 135.442C62.3844 135.474 62.4428 135.506 62.5127 135.528C62.6176 135.571 62.734 135.593 62.8389 135.625C62.8972 135.636 62.9438 135.657 62.9904 135.668C63.1652 135.7 63.3284 135.711 63.5033 135.711C63.6781 135.711 63.8411 135.7 64.0043 135.668C64.0626 135.657 64.1092 135.636 64.1675 135.625C64.2724 135.603 64.3889 135.571 64.4938 135.539C64.5521 135.517 64.6221 135.485 64.6803 135.453C64.7736 135.41 64.8668 135.367 64.96 135.313C65.0183 135.27 65.0766 135.227 65.1348 135.183C65.2048 135.13 65.2746 135.086 65.3445 135.033C65.3562 135.033 65.3562 135.011 65.3795 135C65.3795 135 65.4029 134.99 65.4145 134.979C72.4653 128.194 76.3461 119.267 76.3461 109.822C76.3461 101.218 73.1061 93.0335 67.1975 86.5075C70.6238 83.6537 74.6562 81.4999 79.0381 80.1645C79.819 82.146 80.7746 84.0952 81.9283 85.9475C88.9558 97.2872 102.02 104.039 115.679 104.039C118.779 104.039 121.914 103.695 125.014 102.973C125.025 102.973 125.037 102.962 125.06 102.962C125.072 102.962 125.084 102.962 125.095 102.962C125.165 102.941 125.223 102.909 125.293 102.887C125.387 102.855 125.468 102.833 125.561 102.79C125.643 102.758 125.701 102.715 125.771 102.672C125.853 102.629 125.923 102.586 125.993 102.542C126.063 102.499 126.121 102.435 126.179 102.381C126.237 102.327 126.307 102.273 126.365 102.209C126.424 102.155 126.459 102.09 126.505 102.026C126.552 101.961 126.61 101.896 126.657 101.821C126.703 101.756 126.727 101.681 126.762 101.616C126.797 101.541 126.843 101.466 126.867 101.39C126.89 101.315 126.913 101.25 126.925 101.175C126.948 101.089 126.972 101.013 126.983 100.927C126.995 100.852 126.983 100.776 126.995 100.701C126.995 100.615 127.006 100.529 126.995 100.443C126.995 100.367 126.971 100.281 126.96 100.206C126.948 100.13 126.948 100.066 126.925 99.9902C126.925 99.9795 126.913 99.9687 126.913 99.9472C126.913 99.9364 126.913 99.9257 126.913 99.9149C124.14 90.8366 117.776 83.2337 108.978 78.5168C100.96 74.2092 91.7295 72.7339 82.7092 74.2416C81.7652 70.0524 81.5 63.5 81.9283 62.5658L82.5 61.5658Z"/>
</mask>
<path d="M106.274 82.7491C113.033 86.3783 118.114 91.9781 120.853 98.698C107.264 100.723 93.431 94.7027 86.4618 83.4598C85.5644 82.006 84.807 80.4984 84.1776 78.9692C91.7761 77.8169 99.5261 79.1307 106.285 82.7491H106.274ZM63.4683 129.53C54.7859 119.601 53.4574 105.439 60.4382 94.1858C61.3356 92.732 62.3611 91.3643 63.4799 90.0828C68.3513 95.6396 71.0084 102.543 71.0084 109.801C71.0084 117.059 68.3513 123.962 63.4683 129.53ZM28.2029 94.9073C21.4435 98.5365 13.6935 99.8288 6.07175 98.6872C10.9898 86.7229 23.4947 78.5707 37.4447 78.5707C39.2277 78.5707 41.0224 78.7107 42.7705 78.98C40.0435 85.6783 34.9506 91.2781 28.2029 94.9073ZM20.6627 52.9512C13.8917 49.322 8.81047 43.7114 6.08341 37.0023C19.6604 34.9777 33.5056 40.9761 40.4747 52.2297C41.3721 53.6835 42.1296 55.1912 42.7705 56.7311C35.1721 57.8834 27.4221 56.5804 20.6627 52.9512ZM63.4683 6.17062C72.1506 16.0997 73.4791 30.2609 66.51 41.5145C65.6126 42.9576 64.5871 44.3252 63.4683 45.6067C58.5968 40.0392 55.9397 33.1362 55.9397 25.8995C55.9397 18.6627 58.5969 11.7274 63.4799 6.17062H63.4683ZM77.5232 60.3065C76.3694 65.2925 76.3694 70.4293 77.5232 75.3939C72.3138 76.9554 67.5239 79.5292 63.4799 82.9322C59.401 79.5184 54.6227 76.9446 49.4367 75.3831C50.5904 70.3863 50.5904 65.2494 49.4367 60.2849C54.6577 58.7234 59.4359 56.1496 63.4799 52.7466C67.5472 56.1604 72.3254 58.7342 77.5232 60.2957V60.3065ZM98.7336 40.8038C105.493 37.1746 113.255 35.8608 120.865 37.0239C115.958 48.9882 103.442 57.1404 89.4918 57.1404C87.7088 57.1404 85.9141 57.0004 84.166 56.7311C86.893 50.022 91.9742 44.4329 98.7336 40.793V40.8038ZM82.5 61.5658C84.7493 61.9427 87.196 62.0618 89.5035 62.0618C106.763 62.0618 122.135 51.282 126.878 35.85C126.878 35.8392 126.878 35.8177 126.878 35.807C126.878 35.7962 126.89 35.7854 126.89 35.7746C126.902 35.6992 126.913 35.6347 126.925 35.5593C126.937 35.4839 126.96 35.3977 126.96 35.3223C126.96 35.2362 126.96 35.1501 126.96 35.0747C126.96 34.9993 126.96 34.9131 126.948 34.8377C126.937 34.7623 126.913 34.6762 126.89 34.6008C126.878 34.5255 126.855 34.45 126.832 34.3747C126.797 34.2993 126.762 34.2347 126.727 34.1593C126.692 34.0839 126.657 34.0193 126.622 33.9547C126.575 33.8793 126.529 33.8255 126.482 33.7501C126.435 33.6855 126.389 33.6208 126.33 33.567C126.272 33.5131 126.202 33.4593 126.144 33.3947C126.086 33.3409 126.028 33.287 125.958 33.2332C125.888 33.1793 125.806 33.1362 125.736 33.0931C125.666 33.0501 125.596 33.007 125.526 32.9747C125.445 32.9316 125.352 32.9101 125.258 32.8778C125.2 32.8563 125.13 32.824 125.06 32.8024C125.049 32.8024 125.037 32.8024 125.025 32.8024C125.014 32.8024 124.99 32.7917 124.979 32.7917C115.143 30.4871 104.887 31.8116 96.0998 36.5392C88.0701 40.8469 82.0798 47.5559 78.9915 55.5788C74.6212 54.2327 70.6006 52.0789 67.151 49.2144C68.6194 47.5883 69.948 45.8437 71.1018 43.9914C79.7374 30.0671 77.3833 12.2875 65.3795 0.753844C65.3679 0.753844 65.3562 0.743054 65.3445 0.732285C65.3445 0.721516 65.3329 0.710781 65.3212 0.700012C65.2629 0.646167 65.2047 0.613865 65.1464 0.570789C65.0765 0.516944 65.0066 0.463073 64.9367 0.409228C64.8668 0.366152 64.7852 0.33386 64.7037 0.290784C64.6221 0.258477 64.5521 0.215362 64.4705 0.183055C64.3889 0.150748 64.2957 0.129202 64.2141 0.107664C64.1326 0.0861258 64.0625 0.0646009 63.981 0.0538319C63.8877 0.0430629 63.8062 0.0323281 63.7129 0.0215591C63.6314 0.0215591 63.5615 0 63.4799 0C63.3867 0 63.2935 0.01079 63.2119 0.0215591C63.1303 0.0215591 63.0603 0.0322939 62.9787 0.0538319C62.8855 0.0646009 62.8039 0.0969053 62.7107 0.118443C62.6291 0.139981 62.5593 0.161517 62.4893 0.183055C62.3961 0.215362 62.3144 0.258488 62.2445 0.301564C62.1746 0.333871 62.1047 0.366152 62.0348 0.409228C61.9532 0.463073 61.8832 0.516889 61.8133 0.581503C61.7551 0.624579 61.6968 0.656936 61.6501 0.700012C61.6501 0.710781 61.6386 0.721516 61.627 0.732285C61.6153 0.732285 61.6036 0.743085 61.592 0.764623C54.5412 7.5491 50.6604 16.4766 50.6604 25.921C50.6604 34.5147 53.9002 42.6884 59.8205 49.2252C56.3942 52.079 52.3735 54.2327 47.9799 55.5681C47.1991 53.5758 46.2435 51.6374 45.0897 49.7851C36.454 35.8716 18.7398 28.8717 2.00447 32.7809C1.99282 32.7809 1.98112 32.7809 1.95781 32.7917C1.94616 32.7917 1.93447 32.7917 1.92281 32.7917C1.85289 32.8024 1.78306 32.8455 1.72479 32.867C1.64321 32.8993 1.55001 32.9208 1.46843 32.9639C1.38685 32.9962 1.32851 33.0501 1.24693 33.0931C1.16535 33.1362 1.09549 33.1793 1.02557 33.2224C0.955643 33.2654 0.897332 33.3301 0.839062 33.3839C0.780791 33.4378 0.710827 33.4916 0.652556 33.5455C0.594286 33.6101 0.547664 33.6747 0.501047 33.7393C0.454431 33.8039 0.396166 33.8685 0.361204 33.9332C0.314587 34.0085 0.291319 34.0732 0.256356 34.1486C0.221394 34.2239 0.186471 34.2885 0.151509 34.3639C0.128201 34.4393 0.104836 34.5147 0.0931817 34.5901C0.0815276 34.6654 0.0465083 34.7409 0.0348542 34.827C0.0232001 34.9024 0.0349851 34.9885 0.023331 35.0639C0.023331 35.15 0.0116769 35.2254 0.023331 35.3116C0.023331 35.3977 0.0465311 35.4731 0.0581852 35.5593C0.0698393 35.6347 0.0698735 35.6992 0.0931817 35.7746C0.0931817 35.7854 0.104847 35.7962 0.104847 35.807C0.104847 35.8177 0.104847 35.8285 0.104847 35.8393C2.86687 44.9068 9.2417 52.5097 18.0405 57.2373C24.0191 60.4465 30.6736 62.0941 37.398 62.0941C39.6939 62.0941 42.0131 61.8895 44.2973 61.5126C45.2413 65.7017 45.2413 70.0201 44.2973 74.2308C42.0481 73.8539 39.7638 73.6601 37.4563 73.6601C20.1966 73.6601 4.82474 84.4398 0.0815162 99.8826C0.0815162 99.8933 0.0815162 99.9041 0.0815162 99.9256C0.0815162 99.9364 0.0698507 99.9472 0.0698507 99.9687C0.0581966 100.033 0.0581624 100.109 0.0348542 100.173C0.0232001 100.26 0 100.346 0 100.421C0 100.496 0 100.583 0 100.658C0 100.744 1.13901e-05 100.819 0.0116655 100.906C0.0233196 100.981 0.0465425 101.067 0.0698507 101.132C0.0815048 101.207 0.10487 101.293 0.128178 101.358C0.16314 101.433 0.198063 101.498 0.233025 101.573C0.267988 101.649 0.291256 101.713 0.337873 101.778C0.384489 101.853 0.4311 101.907 0.477716 101.972C0.524333 102.036 0.570955 102.101 0.629225 102.155C0.687496 102.219 0.75746 102.273 0.815731 102.327C0.874002 102.381 0.932312 102.435 1.00224 102.489C1.07216 102.543 1.14202 102.575 1.2236 102.618C1.29352 102.661 1.36352 102.704 1.4451 102.747C1.52668 102.779 1.61988 102.812 1.70145 102.844C1.77138 102.866 1.84136 102.898 1.89963 102.919C1.91128 102.919 1.93449 102.919 1.94615 102.919C1.9578 102.919 1.98115 102.93 1.99281 102.93C5.13942 103.663 8.33269 104.029 11.5026 104.029C18.2503 104.029 24.8932 102.381 30.8717 99.1719C38.8898 94.8643 44.8916 88.1551 47.9799 80.1322C52.3385 81.4675 56.3709 83.6321 59.8205 86.4967C58.3521 88.1228 57.0352 89.8674 55.8697 91.7196C47.2341 105.644 49.5882 123.424 61.592 134.957C61.6036 134.968 61.6153 134.968 61.627 134.99C61.627 134.99 61.6385 135.011 61.6618 135.022C61.7201 135.076 61.8017 135.119 61.86 135.173C61.9183 135.216 61.9766 135.27 62.0465 135.302C62.1397 135.356 62.2329 135.399 62.3262 135.442C62.3844 135.474 62.4428 135.506 62.5127 135.528C62.6176 135.571 62.734 135.593 62.8389 135.625C62.8972 135.636 62.9438 135.657 62.9904 135.668C63.1652 135.7 63.3284 135.711 63.5033 135.711C63.6781 135.711 63.8411 135.7 64.0043 135.668C64.0626 135.657 64.1092 135.636 64.1675 135.625C64.2724 135.603 64.3889 135.571 64.4938 135.539C64.5521 135.517 64.6221 135.485 64.6803 135.453C64.7736 135.41 64.8668 135.367 64.96 135.313C65.0183 135.27 65.0766 135.227 65.1348 135.183C65.2048 135.13 65.2746 135.086 65.3445 135.033C65.3562 135.033 65.3562 135.011 65.3795 135C65.3795 135 65.4029 134.99 65.4145 134.979C72.4653 128.194 76.3461 119.267 76.3461 109.822C76.3461 101.218 73.1061 93.0335 67.1975 86.5075C70.6238 83.6537 74.6562 81.4999 79.0381 80.1645C79.819 82.146 80.7746 84.0952 81.9283 85.9475C88.9558 97.2872 102.02 104.039 115.679 104.039C118.779 104.039 121.914 103.695 125.014 102.973C125.025 102.973 125.037 102.962 125.06 102.962C125.072 102.962 125.084 102.962 125.095 102.962C125.165 102.941 125.223 102.909 125.293 102.887C125.387 102.855 125.468 102.833 125.561 102.79C125.643 102.758 125.701 102.715 125.771 102.672C125.853 102.629 125.923 102.586 125.993 102.542C126.063 102.499 126.121 102.435 126.179 102.381C126.237 102.327 126.307 102.273 126.365 102.209C126.424 102.155 126.459 102.09 126.505 102.026C126.552 101.961 126.61 101.896 126.657 101.821C126.703 101.756 126.727 101.681 126.762 101.616C126.797 101.541 126.843 101.466 126.867 101.39C126.89 101.315 126.913 101.25 126.925 101.175C126.948 101.089 126.972 101.013 126.983 100.927C126.995 100.852 126.983 100.776 126.995 100.701C126.995 100.615 127.006 100.529 126.995 100.443C126.995 100.367 126.971 100.281 126.96 100.206C126.948 100.13 126.948 100.066 126.925 99.9902C126.925 99.9795 126.913 99.9687 126.913 99.9472C126.913 99.9364 126.913 99.9257 126.913 99.9149C124.14 90.8366 117.776 83.2337 108.978 78.5168C100.96 74.2092 91.7295 72.7339 82.7092 74.2416C81.7652 70.0524 81.5 63.5 81.9283 62.5658L82.5 61.5658Z" stroke="#4C6EE2" stroke-width="8" mask="url(#path-1-inside-1_310_258)"/>
</svg>
