<svg width="22" height="25" viewBox="0 0 22 25" fill="none" xmlns="http://www.w3.org/2000/svg">
<path d="M18.4096 15.2436C19.5805 15.9122 20.4608 16.9437 20.9352 18.1816C18.5812 18.5546 16.1849 17.4456 14.9776 15.3745C14.8222 15.1067 14.691 14.829 14.582 14.5473C15.8982 14.335 17.2407 14.5771 18.4117 15.2436H18.4096ZM10.9945 23.8613C9.49048 22.0322 9.26034 19.4235 10.4696 17.3504C10.6251 17.0826 10.8027 16.8307 10.9965 16.5946C11.8404 17.6182 12.3007 18.8899 12.3007 20.2269C12.3007 21.564 11.8404 22.8357 10.9945 23.8613ZM4.88554 17.4833C3.71462 18.1519 2.37211 18.3899 1.0518 18.1797C1.90374 15.9756 4.06995 14.4739 6.48648 14.4739C6.79536 14.4739 7.10625 14.4997 7.40907 14.5493C6.93666 15.7832 6.05444 16.8148 4.88554 17.4833ZM3.57937 9.7544C2.40643 9.08585 1.52622 8.05229 1.05382 6.81637C3.40575 6.44342 5.80411 7.5484 7.01137 9.62149C7.16682 9.8893 7.29803 10.167 7.40907 10.4507C6.0928 10.663 4.75029 10.4229 3.57937 9.7544ZM10.9945 1.13672C12.4985 2.9658 12.7287 5.57451 11.5214 7.64759C11.366 7.91342 11.1883 8.16537 10.9945 8.40144C10.1506 7.37581 9.69035 6.10419 9.69035 4.77107C9.69035 3.43794 10.1506 2.16037 10.9965 1.13672H10.9945ZM13.4292 11.1093C13.2293 12.0279 13.2293 12.9741 13.4292 13.8887C12.5268 14.1763 11.6971 14.6505 10.9965 15.2773C10.2899 14.6485 9.4622 14.1743 8.56383 13.8867C8.76369 12.9662 8.76369 12.0199 8.56383 11.1054C9.46826 10.8177 10.296 10.3436 10.9965 9.71671C11.7011 10.3456 12.5288 10.8197 13.4292 11.1074V11.1093ZM17.1035 7.51667C18.2744 6.84812 19.6189 6.60609 20.9372 6.82035C20.0873 9.02436 17.9191 10.5261 15.5025 10.5261C15.1936 10.5261 14.8828 10.5003 14.5799 10.4507C15.0523 9.2148 15.9325 8.18521 17.1035 7.51468V7.51667ZM14.3195 11.3295C14.7091 11.399 15.1048 11.4327 15.5045 11.4327C18.4944 11.4327 21.1573 9.44691 21.9789 6.60411V6.59617L21.9809 6.59022C21.983 6.57633 21.985 6.56444 21.987 6.55055C21.989 6.53666 21.993 6.52079 21.993 6.5069C21.993 6.49103 21.993 6.47516 21.993 6.46128C21.993 6.44739 21.993 6.43151 21.991 6.41763C21.989 6.40374 21.985 6.38788 21.9809 6.37399C21.9789 6.3601 21.9749 6.34621 21.9708 6.33232C21.9648 6.31844 21.9587 6.30653 21.9527 6.29265C21.9466 6.27876 21.9405 6.26687 21.9345 6.25496C21.9264 6.24108 21.9183 6.23116 21.9103 6.21727C21.9022 6.20537 21.8941 6.19346 21.884 6.18354C21.8739 6.17362 21.8618 6.16371 21.8517 6.1518C21.8416 6.14188 21.8315 6.13196 21.8194 6.12204C21.8073 6.11212 21.7932 6.10419 21.7811 6.09625C21.769 6.08832 21.7568 6.08038 21.7447 6.07443C21.7306 6.0665 21.7145 6.06253 21.6983 6.05658C21.6882 6.05262 21.6761 6.04666 21.664 6.0427C21.662 6.0427 21.6599 6.0427 21.6579 6.0427C21.6559 6.0427 21.6519 6.04071 21.6498 6.04071C19.946 5.61617 18.1694 5.86018 16.6472 6.73107C15.2562 7.5246 14.2185 8.76051 13.6836 10.2385C12.9265 9.99047 12.23 9.59372 11.6325 9.06602C11.8868 8.76647 12.117 8.44508 12.3168 8.10387C13.8128 5.5388 13.405 2.26353 11.3256 0.138869C11.3236 0.138869 11.3215 0.136882 11.3195 0.134898C11.3195 0.134898 11.3175 0.130936 11.3155 0.128953C11.3054 0.119034 11.2953 0.113083 11.2852 0.105148C11.2731 0.0952288 11.261 0.0853049 11.2489 0.0753858C11.2368 0.0674506 11.2226 0.061502 11.2085 0.0535668C11.1944 0.0476154 11.1822 0.0396728 11.1681 0.0337214C11.154 0.02777 11.1378 0.0238009 11.1237 0.0198333C11.1096 0.0158657 11.0974 0.0119005 11.0833 0.00991664C11.0672 0.00793283 11.053 0.00595531 11.0369 0.0039715C11.0228 0.0039715 11.0107 0 10.9965 0C10.9804 0 10.9642 0.00198769 10.9501 0.0039715C10.936 0.0039715 10.9238 0.00594901 10.9097 0.00991664C10.8935 0.0119005 10.8794 0.0178514 10.8633 0.021819C10.8491 0.0257866 10.837 0.0297538 10.8249 0.0337214C10.8088 0.0396728 10.7946 0.0476173 10.7825 0.0555525C10.7704 0.061504 10.7583 0.0674506 10.7462 0.0753858C10.7321 0.0853049 10.7199 0.0952186 10.7078 0.107121C10.6977 0.115057 10.6876 0.121017 10.6796 0.128953C10.6796 0.128953 10.6776 0.132914 10.6755 0.134898C10.6735 0.134898 10.6715 0.136887 10.6695 0.140855C9.44808 1.39066 8.77582 3.03523 8.77582 4.77504C8.77582 6.35812 9.33705 7.86383 10.3626 9.06801C9.76907 9.59372 9.07257 9.99047 8.31148 10.2365C8.17621 9.86946 8.01068 9.51237 7.81081 9.17116C6.31486 6.60807 3.24626 5.3186 0.347232 6.03872C0.345213 6.03872 0.343186 6.03873 0.339148 6.04071C0.33713 6.04071 0.335105 6.04071 0.333086 6.04071C0.320973 6.04269 0.308876 6.05063 0.298782 6.0546C0.28465 6.06055 0.268505 6.06451 0.254374 6.07245C0.240242 6.0784 0.230135 6.08832 0.216003 6.09625C0.201871 6.10419 0.18977 6.11212 0.177657 6.12005C0.165544 6.12799 0.155443 6.1399 0.145349 6.14982C0.135255 6.15974 0.123135 6.16966 0.113041 6.17958C0.102947 6.19148 0.0948709 6.20338 0.0867956 6.21529C0.0787203 6.22719 0.0686271 6.23909 0.0625707 6.25099C0.0544954 6.26488 0.0504646 6.27679 0.0444082 6.29067C0.0383517 6.30456 0.0323021 6.31645 0.0262457 6.33034C0.022208 6.34422 0.0181605 6.35812 0.0161417 6.372C0.0141229 6.38589 0.00805656 6.39978 0.00603774 6.41565C0.00401892 6.42954 0.00606041 6.4454 0.00404159 6.45929C0.00404159 6.47516 0.00202277 6.48904 0.00404159 6.50491C0.00404159 6.52079 0.0080605 6.53468 0.0100793 6.55055C0.0120981 6.56444 0.0121041 6.57633 0.0161417 6.59022L0.0181625 6.59617V6.60213C0.496623 8.2725 1.60092 9.67307 3.12513 10.544C4.16079 11.1351 5.31353 11.4387 6.47839 11.4387C6.8761 11.4387 7.27786 11.401 7.67355 11.3315C7.83707 12.1032 7.83707 12.8987 7.67355 13.6744C7.28391 13.605 6.88823 13.5693 6.4885 13.5693C3.49862 13.5693 0.835782 15.5551 0.0141209 18.3999C0.0141209 18.3999 0.0141209 18.4038 0.0141209 18.4078C0.0141209 18.4078 0.0121001 18.4118 0.0121001 18.4157C0.0100813 18.4276 0.0100754 18.4415 0.00603774 18.4534C0.00401892 18.4693 0 18.4852 0 18.499C0 18.5129 0 18.5288 0 18.5427C0 18.5586 1.97161e-06 18.5724 0.00202079 18.5883C0.00403962 18.6022 0.00806248 18.6181 0.0121001 18.63C0.0141189 18.6439 0.0181664 18.6597 0.0222041 18.6716C0.0282606 18.6855 0.0343101 18.6974 0.0403666 18.7113C0.0464231 18.7252 0.0504538 18.7371 0.0585291 18.749C0.0666044 18.7629 0.0746787 18.7728 0.082754 18.7847C0.0908293 18.7966 0.0989055 18.8085 0.109 18.8184C0.119094 18.8303 0.131214 18.8403 0.141308 18.8502C0.151402 18.8601 0.161503 18.87 0.173616 18.8799C0.185729 18.8899 0.19783 18.8958 0.211962 18.9037C0.224074 18.9117 0.2362 18.9196 0.250332 18.9275C0.264464 18.9335 0.280608 18.9395 0.29474 18.9454C0.306853 18.9494 0.318975 18.9553 0.329069 18.9593C0.331088 18.9593 0.335109 18.9593 0.337128 18.9593C0.339146 18.9593 0.343192 18.9613 0.345211 18.9613C0.890293 19.0962 1.44346 19.1636 1.99258 19.1636C3.16147 19.1636 4.3122 18.8601 5.34786 18.2689C6.73681 17.4754 7.77649 16.2395 8.31148 14.7615C9.06651 15.0075 9.76504 15.4063 10.3626 15.934C10.1082 16.2335 9.88011 16.5549 9.67822 16.8961C8.18228 19.4612 8.59008 22.7365 10.6695 24.8611C10.6715 24.8631 10.6735 24.8631 10.6755 24.8671C10.6755 24.8671 10.6775 24.871 10.6816 24.873C10.6917 24.883 10.7058 24.8909 10.7159 24.9008C10.726 24.9087 10.7361 24.9187 10.7482 24.9246C10.7644 24.9345 10.7805 24.9425 10.7967 24.9504C10.8068 24.9564 10.8169 24.9623 10.829 24.9663C10.8471 24.9742 10.8673 24.9782 10.8855 24.9841C10.8956 24.9861 10.9036 24.9901 10.9117 24.9921C10.942 24.998 10.9703 25 11.0006 25C11.0308 25 11.0591 24.998 11.0874 24.9921C11.0975 24.9901 11.1055 24.9861 11.1156 24.9841C11.1338 24.9802 11.154 24.9742 11.1722 24.9683C11.1823 24.9643 11.1944 24.9583 11.2045 24.9524C11.2206 24.9445 11.2368 24.9365 11.2529 24.9266C11.263 24.9187 11.2731 24.9107 11.2832 24.9028C11.2953 24.8929 11.3074 24.8849 11.3195 24.875C11.3215 24.875 11.3216 24.871 11.3256 24.8691C11.3256 24.8691 11.3296 24.8671 11.3317 24.8651C12.553 23.6153 13.2253 21.9707 13.2253 20.2309C13.2253 18.6458 12.6641 17.1382 11.6405 15.936C12.234 15.4103 12.9326 15.0135 13.6916 14.7675C13.8269 15.1325 13.9924 15.4916 14.1923 15.8328C15.4097 17.9218 17.6728 19.1656 20.0388 19.1656C20.5758 19.1656 21.1189 19.1021 21.6559 18.9692C21.6579 18.9692 21.6599 18.9672 21.664 18.9672C21.666 18.9672 21.668 18.9672 21.67 18.9672C21.6821 18.9633 21.6922 18.9573 21.7044 18.9533C21.7205 18.9474 21.7346 18.9434 21.7508 18.9355C21.7649 18.9295 21.775 18.9216 21.7871 18.9137C21.8012 18.9057 21.8134 18.8978 21.8255 18.8899C21.8376 18.8819 21.8477 18.87 21.8578 18.8601C21.8679 18.8502 21.88 18.8403 21.8901 18.8284C21.9002 18.8184 21.9062 18.8065 21.9143 18.7946C21.9224 18.7827 21.9325 18.7708 21.9405 18.7569C21.9486 18.745 21.9527 18.7311 21.9587 18.7192C21.9648 18.7054 21.9729 18.6915 21.9769 18.6776C21.9809 18.6637 21.985 18.6518 21.987 18.6379C21.991 18.622 21.9951 18.6082 21.9971 18.5923C21.9991 18.5784 21.9971 18.5645 21.9991 18.5506C21.9991 18.5348 22.0011 18.5189 21.9991 18.503C21.9991 18.4891 21.9951 18.4733 21.993 18.4594C21.991 18.4455 21.991 18.4336 21.987 18.4197C21.987 18.4197 21.985 18.4157 21.985 18.4118V18.4058C21.5045 16.7335 20.4022 15.3329 18.878 14.464C17.4891 13.6704 15.8901 13.3987 14.3276 13.6764C14.1641 12.9047 14.1641 12.1072 14.3276 11.3335L14.3195 11.3295Z" fill="#3114E5"/>
</svg>
