<?xml version="1.0" encoding="UTF-8"?>
<svg id="Layer_2" data-name="Layer 2" xmlns="http://www.w3.org/2000/svg" viewBox="0 0 169.51 174.11">
  <defs>
    <style>
      .cls-1 {
        fill: #472425;
      }

      .cls-2 {
        fill: none;
        stroke: #472425;
        stroke-miterlimit: 10;
      }
    </style>
  </defs>
  <g id="Layer_1-2" data-name="Layer 1">
    <g>
      <path class="cls-1" d="M32.6,17.82l4.07-2.81c.63-.44,1.28-.71,1.93-.81.65-.1,1.26-.03,1.84.22.57.25,1.05.65,1.44,1.21.35.5.54,1.02.58,1.56.04.53-.04,1.04-.25,1.53-.2.49-.49.92-.87,1.31l6.16,2.81-1.53,1.05-4.53-2.21c-.45-.21-.82-.32-1.09-.32-.27,0-.56.1-.87.31l-1.6,1.11,3.13,4.53-1.27.88-7.17-10.36ZM40.96,18.3c.15-.59.03-1.16-.36-1.72-.38-.54-.86-.85-1.44-.93-.58-.08-1.18.1-1.8.52l-2.72,1.88,2.5,3.61,2.61-1.8c.66-.46,1.07-.98,1.22-1.56Z"/>
      <path class="cls-1" d="M50.03,21.06c-.77-.05-1.47-.3-2.11-.77-.64-.46-1.15-1.1-1.55-1.9l-3.61-7.31,1.39-.69,3.61,7.31c.28.56.63,1.01,1.05,1.35.43.34.9.53,1.41.59.51.05,1.01-.04,1.5-.28l.74-.37c.5-.24.88-.59,1.14-1.02.27-.44.4-.93.4-1.48,0-.55-.14-1.1-.42-1.66l-3.61-7.31,1.37-.68,3.61,7.31c.4.81.59,1.6.57,2.39s-.24,1.5-.67,2.14-1.02,1.15-1.79,1.52l-.74.37c-.76.38-1.53.54-2.3.49Z"/>
      <path class="cls-1" d="M54.87,5.5l1.47-.49,3.57,10.67,5.62-1.88.43,1.28-7.08,2.37-4-11.95Z"/>
      <path class="cls-1" d="M68.6,1.52l1.73-.25,6.63,8.15c.32.39.6.76.83,1.1l.05-.03c-.08-.4-.16-.86-.23-1.37l-1.23-8.72,1.52-.21,1.77,12.48-1.71.24-6.62-8.12c-.34-.4-.61-.77-.83-1.1h-.05c.08.41.16.86.23,1.38l1.23,8.7-1.53.22-1.77-12.48Z"/>
      <path class="cls-1" d="M81.8,0h8.14s0,1.36,0,1.36h-6.59s0,4.02,0,4.02h6.32s0,1.36,0,1.36h-6.32s0,4.51,0,4.51h6.6s0,1.36,0,1.36h-8.15s.02-12.61.02-12.61Z"/>
      <path class="cls-1" d="M93.32.23l4.58.67c1.08.16,2,.55,2.76,1.18.76.63,1.31,1.44,1.65,2.43s.42,2.08.24,3.28c-.19,1.33-.59,2.44-1.2,3.33-.61.89-1.37,1.52-2.28,1.91s-1.91.5-2.99.34l-4.58-.67,1.81-12.47ZM98.35,11.78c.66-.27,1.23-.75,1.69-1.45.47-.7.78-1.62.95-2.76.14-1,.09-1.88-.17-2.65-.26-.77-.67-1.38-1.22-1.84-.56-.46-1.21-.74-1.96-.85l-2.97-.43-1.42,9.8,2.97.43c.76.11,1.47.03,2.13-.24Z"/>
      <path class="cls-1" d="M108.92,15.5c-.55-.85-.87-1.82-.96-2.92-.08-1.09.07-2.16.46-3.19.39-1.03.97-1.93,1.76-2.7.79-.77,1.67-1.29,2.63-1.57.97-.28,1.93-.24,2.87.11l.98.37c.96.36,1.71.96,2.27,1.81.56.85.88,1.82.97,2.91.09,1.09-.06,2.16-.45,3.2-.39,1.04-.98,1.95-1.77,2.71-.79.76-1.67,1.28-2.66,1.55-.99.27-1.96.23-2.93-.14l-.93-.35c-.96-.36-1.71-.96-2.26-1.81ZM114.66,16.43c.71-.23,1.36-.65,1.95-1.26.59-.61,1.04-1.35,1.36-2.2.33-.86.47-1.72.43-2.56-.04-.84-.25-1.58-.64-2.22-.39-.64-.92-1.08-1.58-1.33l-.96-.36c-.66-.25-1.34-.26-2.05-.03-.7.23-1.34.65-1.92,1.26-.58.61-1.03,1.35-1.36,2.21-.33.87-.47,1.72-.43,2.56.04.84.25,1.58.62,2.21.38.63.9,1.08,1.56,1.32l.93.35c.67.25,1.37.27,2.08.04Z"/>
      <path class="cls-1" d="M120.46,20.53c-.43-.83-.61-1.79-.55-2.88.06-1.09.42-2.22,1.09-3.37.67-1.16,1.47-2.04,2.4-2.63s1.87-.89,2.83-.93c.95-.03,1.8.17,2.55.6l.86.49c.69.4,1.21.93,1.58,1.6.37.67.56,1.4.58,2.19s-.14,1.56-.45,2.3l-1.33-.76c.22-.5.33-1.01.34-1.55,0-.53-.1-1.03-.33-1.5-.23-.46-.59-.83-1.06-1.11l-.86-.49c-.57-.33-1.21-.45-1.91-.37-.7.08-1.39.38-2.06.88-.68.5-1.27,1.19-1.77,2.07-.51.88-.82,1.74-.93,2.57-.11.83-.03,1.56.24,2.19.27.63.7,1.12,1.29,1.46l.86.49c.5.29,1.04.4,1.61.34.58-.06,1.12-.27,1.63-.63.51-.36.92-.8,1.21-1.32l.16-.28-3.04-1.75.62-1.08,4.35,2.5-3.18,5.54-1.22-.7,1.06-1.84c-.32.23-.69.42-1.14.57-.44.15-.91.21-1.4.19-.49-.02-.95-.15-1.39-.4l-.86-.49c-.76-.44-1.35-1.07-1.78-1.9Z"/>
    </g>
    <g>
      <path class="cls-2" d="M5.13,94.48c-2.41-25.97,7.81-50.34,25.72-66.85"/>
      <path class="cls-2" d="M136.96,24.81c15.51,12.81,26.28,31.4,28.78,52.95.64,5.54.71,11.01.24,16.35"/>
      <path class="cls-1" d="M.21,102.22c.24-.73.66-1.35,1.27-1.85.6-.5,1.35-.84,2.23-1.03l7.98-1.67.32,1.52-7.98,1.67c-.61.13-1.13.36-1.57.69-.43.33-.74.74-.92,1.22-.18.48-.21.99-.11,1.52l.17.81c.11.54.35.99.71,1.36.36.37.8.62,1.33.75.53.13,1.1.14,1.71,0l7.98-1.67.31,1.5-7.98,1.67c-.88.18-1.7.17-2.46-.05-.76-.22-1.39-.61-1.9-1.18s-.86-1.28-1.03-2.11l-.17-.81c-.17-.83-.14-1.62.1-2.35Z"/>
      <path class="cls-1" d="M14.19,108.92l1.63,4.33c.38,1.02.49,2.02.3,2.99s-.63,1.85-1.33,2.62c-.7.77-1.62,1.37-2.75,1.8-1.26.47-2.42.66-3.49.56-1.07-.1-1.99-.46-2.77-1.07-.78-.61-1.36-1.43-1.74-2.45l-1.63-4.33,11.79-4.45ZM6.51,118.91c.56.45,1.25.71,2.09.78.84.07,1.8-.1,2.88-.51.94-.36,1.69-.83,2.24-1.43.55-.6.89-1.25,1.02-1.96s.06-1.42-.21-2.12l-1.06-2.81-9.26,3.5,1.06,2.81c.27.72.69,1.3,1.24,1.75Z"/>
      <path class="cls-1" d="M18.54,119.76l3.83,6.97-1.18.65-3.08-5.62-3.44,1.89,2.95,5.38-1.18.65-2.95-5.38-5.24,2.88-.74-1.36,11.05-6.06Z"/>
      <path class="cls-1" d="M14.6,136.34c-.01-1.01.24-2,.76-2.97.52-.97,1.21-1.79,2.1-2.45.88-.66,1.86-1.11,2.94-1.34,1.08-.23,2.1-.2,3.07.09s1.75.83,2.36,1.63l.63.83c.61.81.93,1.73.95,2.75.01,1.02-.23,2.01-.74,2.98s-1.21,1.79-2.1,2.46c-.89.67-1.87,1.12-2.95,1.34s-2.1.18-3.08-.12c-.98-.3-1.78-.86-2.4-1.69l-.6-.79c-.61-.81-.93-1.73-.94-2.74ZM18.95,140.21c.72.19,1.5.19,2.32-.02.83-.2,1.6-.58,2.33-1.13.74-.56,1.32-1.2,1.73-1.93.42-.73.64-1.47.65-2.21.02-.75-.19-1.4-.62-1.97l-.62-.82c-.43-.57-1-.94-1.71-1.12-.72-.18-1.48-.17-2.3.03-.82.2-1.59.58-2.33,1.14-.74.56-1.32,1.2-1.73,1.93-.42.73-.64,1.46-.66,2.2-.02.74.18,1.39.61,1.96l.6.79c.43.58,1.01.96,1.73,1.15Z"/>
      <path class="cls-1" d="M30.59,137.48l3.55,3.45c.55.54.94,1.11,1.17,1.73.22.62.27,1.23.14,1.84-.13.61-.43,1.16-.91,1.65-.42.44-.9.73-1.41.87-.52.14-1.03.16-1.55.05-.52-.11-1-.31-1.45-.6l-1.56,6.59-1.33-1.29,1.29-4.87c.12-.49.15-.86.1-1.13-.05-.27-.21-.53-.48-.79l-1.39-1.35-3.84,3.95-1.11-1.08,8.78-9.04ZM31.74,145.77c.6.03,1.14-.19,1.62-.69.46-.47.67-1,.63-1.59-.04-.59-.32-1.14-.86-1.66l-2.38-2.31-3.06,3.15,2.27,2.21c.58.56,1.17.86,1.77.89Z"/>
      <path class="cls-1" d="M32.03,155.34c-.29-.6-.41-1.24-.35-1.92.06-.67.3-1.32.72-1.95l1.24.92c-.27.43-.43.85-.47,1.28-.04.43.03.82.19,1.19.17.37.43.69.79.95l.78.58c.27.2.59.34.96.41.37.07.74.05,1.12-.08.38-.12.71-.38.99-.77.28-.39.41-.78.37-1.18-.04-.4-.16-.79-.38-1.15s-.54-.85-.98-1.44c-.51-.7-.91-1.29-1.19-1.79-.28-.5-.43-1.04-.45-1.63-.02-.59.2-1.19.65-1.79.39-.53.87-.9,1.42-1.11.56-.21,1.13-.26,1.73-.16.6.1,1.15.34,1.66.72l.78.58c.53.39.94.85,1.23,1.37.29.52.42,1.08.39,1.69-.03.6-.23,1.23-.61,1.88l-1.23-.91c.3-.61.41-1.16.31-1.65-.1-.49-.4-.93-.91-1.3l-.75-.56c-.26-.19-.56-.32-.9-.38-.34-.06-.67-.03-.98.09-.32.12-.59.33-.82.64-.26.36-.38.73-.34,1.11.04.38.16.75.37,1.1.21.36.53.82.95,1.39.55.71.97,1.31,1.25,1.82.28.51.43,1.07.44,1.68.02.62-.22,1.25-.71,1.91-.43.58-.95.98-1.57,1.2-.62.22-1.25.27-1.89.16s-1.22-.37-1.75-.76l-.77-.57c-.58-.43-1.01-.94-1.3-1.55Z"/>
      <path class="cls-1" d="M39.9,161.29l6.12-11.02,1.35.75-2.84,5.11,7.54-2.5,1.7.94-6.54,2.13.88,9.13-1.65-.92-.76-7.65-2.21.71-2.25,4.04-1.35-.75Z"/>
      <path class="cls-1" d="M57.95,156.49l2,.61.66,9.71c.02.46.05.92.07,1.38h.03c.28-.36.55-.72.83-1.09l5.99-7.67,1.98.61-3.69,12.05-1.41-.43,2.6-8.48c.15-.44.29-.88.42-1.32h-.03c-.28.36-.56.72-.84,1.09l-5.93,7.56-1.19-.36-.64-9.57c-.02-.46-.04-.92-.07-1.38h-.03c-.12.43-.25.87-.39,1.32l-2.6,8.48-1.43-.44,3.69-12.05Z"/>
      <path class="cls-1" d="M71.74,160.24l1.53.27-2.2,12.41-1.52-.27,2.2-12.41Z"/>
      <path class="cls-1" d="M78.25,162.52l-3.77-.32.11-1.34,9.04.77-.11,1.34-3.75-.32-.96,11.21-1.52-.13.95-11.21Z"/>
      <path class="cls-1" d="M88.24,161.56l5.04-.45c.77-.07,1.45.03,2.05.29.6.26,1.08.66,1.43,1.19.36.53.57,1.17.63,1.89.07.73-.03,1.39-.28,1.98-.25.59-.65,1.07-1.2,1.43-.54.36-1.2.58-1.97.65l-3.49.32.46,5.13-1.54.14-1.13-12.55ZM95,166.75c.33-.25.56-.56.69-.93.13-.37.18-.78.14-1.21-.06-.68-.31-1.23-.74-1.64-.43-.41-1.04-.58-1.83-.51l-3.37.3.43,4.73,3.37-.3c.54-.05.97-.2,1.3-.44Z"/>
      <path class="cls-1" d="M102.9,171.64c-.94-.39-1.75-1.01-2.43-1.87-.69-.86-1.16-1.82-1.42-2.9s-.29-2.15-.06-3.23c.22-1.08.65-2,1.29-2.78s1.46-1.28,2.44-1.52l1.02-.25c.99-.24,1.96-.17,2.9.22.94.39,1.76,1.01,2.45,1.86.69.85,1.16,1.82,1.43,2.9.26,1.08.29,2.16.07,3.24-.22,1.07-.66,2-1.32,2.78s-1.5,1.29-2.5,1.54l-.96.23c-.99.24-1.96.17-2.89-.22ZM108.17,169.18c.46-.59.76-1.3.91-2.14.14-.84.1-1.7-.11-2.58-.22-.9-.58-1.68-1.08-2.36-.5-.67-1.1-1.17-1.78-1.47-.68-.31-1.37-.38-2.05-.21l-1,.24c-.69.17-1.26.54-1.71,1.13-.45.59-.74,1.29-.88,2.12-.14.83-.1,1.69.12,2.59.22.9.58,1.68,1.08,2.36s1.09,1.17,1.76,1.48c.67.31,1.35.38,2.04.22l.96-.23c.7-.17,1.28-.55,1.74-1.14Z"/>
      <path class="cls-1" d="M110.26,157.42l4.57-1.9c.71-.3,1.39-.42,2.05-.39.66.04,1.24.24,1.75.6.51.36.89.86,1.16,1.49.23.56.32,1.11.24,1.64-.07.53-.26,1.01-.56,1.44-.3.43-.68.8-1.12,1.1l5.44,4.03-1.71.71-3.96-3.11c-.4-.3-.73-.48-1-.54-.26-.06-.57-.02-.91.13l-1.79.75,2.12,5.08-1.43.59-4.84-11.63ZM118.34,159.63c.27-.54.27-1.13,0-1.76-.25-.61-.66-1.01-1.21-1.21s-1.18-.15-1.87.13l-3.06,1.27,1.69,4.05,2.92-1.22c.74-.31,1.25-.73,1.52-1.27Z"/>
      <path class="cls-1" d="M122.53,153.23l-3.28,1.88-.67-1.17,7.87-4.51.67,1.17-3.26,1.87,5.59,9.76-1.33.76-5.59-9.76Z"/>
      <path class="cls-1" d="M135.59,157.43c-1.01.02-2.01-.22-2.98-.72s-1.8-1.2-2.47-2.07c-.68-.87-1.13-1.85-1.37-2.92s-.22-2.1.05-3.07c.28-.97.81-1.76,1.61-2.38l.83-.64c.81-.62,1.72-.95,2.74-.98,1.02-.03,2.01.21,2.99.71.97.5,1.8,1.19,2.48,2.07.68.88,1.14,1.86,1.37,2.93.24,1.07.21,2.09-.08,3.08-.29.98-.84,1.79-1.66,2.42l-.79.61c-.81.62-1.71.95-2.73.97ZM139.41,153.04c.18-.72.17-1.5-.04-2.32-.21-.82-.59-1.59-1.15-2.32-.56-.73-1.21-1.3-1.95-1.71-.73-.41-1.47-.62-2.22-.63-.75,0-1.4.21-1.96.64l-.81.63c-.56.43-.93,1.01-1.1,1.73-.17.72-.15,1.48.06,2.3s.6,1.59,1.16,2.32,1.21,1.3,1.95,1.71,1.47.62,2.21.64,1.39-.2,1.95-.63l.78-.6c.57-.44.95-1.02,1.13-1.75Z"/>
      <path class="cls-1" d="M136.56,141.38l5.53-5.72.97.94-4.46,4.61,2.82,2.73,4.27-4.41.97.94-4.27,4.41,4.3,4.15-1.08,1.11-9.06-8.76Z"/>
      <path class="cls-1" d="M153.56,140.24c-.96.31-1.99.36-3.06.15-1.08-.21-2.06-.64-2.96-1.28s-1.61-1.45-2.14-2.41-.81-1.95-.82-2.96.28-1.92.87-2.74l.61-.85c.6-.83,1.38-1.4,2.35-1.71.97-.31,1.99-.37,3.06-.17,1.08.2,2.07.63,2.97,1.28.9.65,1.62,1.46,2.15,2.42.53.96.79,1.95.79,2.97,0,1.02-.3,1.95-.91,2.79l-.58.8c-.6.83-1.38,1.4-2.34,1.71ZM155.97,134.94c-.03-.75-.26-1.48-.7-2.21s-1.02-1.36-1.76-1.9c-.75-.54-1.53-.9-2.35-1.09-.82-.19-1.59-.17-2.31.03-.72.21-1.29.6-1.7,1.17l-.6.83c-.41.57-.6,1.23-.56,1.97.04.74.27,1.47.71,2.19s1.03,1.35,1.78,1.89c.75.54,1.53.91,2.35,1.09s1.59.18,2.3-.02c.71-.2,1.28-.58,1.69-1.16l.58-.8c.42-.58.62-1.25.59-2Z"/>
      <path class="cls-1" d="M149.94,124.52l.72-1.37,9.96,5.24,2.76-5.24,1.19.63-3.48,6.61-11.15-5.87Z"/>
      <path class="cls-1" d="M153.87,116.62l.6-1.43,11.61,4.89-.6,1.43-11.61-4.9Z"/>
      <path class="cls-1" d="M167.38,114.61c-.81.61-1.75,1-2.84,1.16s-2.16.08-3.22-.23-2-.83-2.82-1.57-1.41-1.57-1.75-2.52c-.35-.95-.38-1.9-.09-2.87l.29-1c.29-.98.84-1.78,1.65-2.4.81-.62,1.75-1.01,2.83-1.18,1.08-.17,2.16-.09,3.23.22,1.07.32,2.01.84,2.83,1.57.82.73,1.4,1.58,1.74,2.54.34.96.37,1.94.07,2.93l-.28.95c-.29.98-.84,1.77-1.64,2.39ZM167.9,108.81c-.28-.69-.74-1.31-1.39-1.86-.65-.54-1.42-.94-2.29-1.2-.88-.26-1.75-.34-2.58-.25-.84.1-1.56.36-2.17.8-.61.43-1.02.99-1.21,1.67l-.29.98c-.2.68-.16,1.36.12,2.04.28.68.74,1.29,1.39,1.83.65.54,1.42.93,2.3,1.2s1.75.34,2.58.25c.84-.1,1.55-.36,2.16-.78s1.01-.97,1.21-1.65l.28-.95c.21-.69.17-1.38-.11-2.08Z"/>
    </g>
  </g>
</svg>