<svg width="75" height="75" viewBox="0 0 75 75" fill="none" xmlns="http://www.w3.org/2000/svg">
<mask id="mask0_164_31" style="mask-type:luminance" maskUnits="userSpaceOnUse" x="0" y="0" width="75" height="75">
<path d="M0 0H75V75H0V0Z" fill="white"/>
</mask>
<g mask="url(#mask0_164_31)">
<path d="M75 36.5281C75 31.5594 68.7781 26.85 59.2375 23.9312C61.4406 14.2094 60.4625 6.47187 56.15 3.99375C55.1048 3.40921 53.9223 3.11467 52.725 3.14062V6.54687C53.4281 6.54687 53.9938 6.6875 54.4688 6.94687C56.5469 8.14062 57.45 12.6781 56.7469 18.5187C56.5781 19.9562 56.3031 21.4687 55.9656 23.0125C52.7702 22.2452 49.5278 21.6888 46.2594 21.3469C44.311 18.6611 42.1865 16.1076 39.9 13.7031C44.8844 9.07188 49.5625 6.53437 52.7438 6.53437V3.125C48.5375 3.125 43.0344 6.12187 37.4687 11.3187C31.9062 6.15625 26.4 3.1875 22.1969 3.1875V6.59375C25.3625 6.59375 30.0563 9.11875 35.0406 13.7187C32.9 15.9687 30.7594 18.5187 28.725 21.3469C25.4497 21.6839 22.2014 22.2457 19.0031 23.0281C18.6531 21.499 18.3875 20.0219 18.2063 18.5969C17.4875 12.7531 18.375 8.21562 20.4406 7.00937C20.8969 6.73437 21.4938 6.60937 22.1969 6.60937V3.20312C20.9156 3.20312 19.75 3.47812 18.7438 4.05625C14.4469 6.53437 13.4844 14.2531 15.7 23.9469C6.19063 26.8844 0 31.575 0 36.5281C0 41.4969 6.22188 46.2062 15.7625 49.1219C13.5594 58.8469 14.5375 66.5844 18.85 69.0594C19.8438 69.6406 21.0062 69.9156 22.2875 69.9156C26.4937 69.9156 31.9969 66.9187 37.5625 61.7219C43.125 66.8875 48.6281 69.8531 52.8344 69.8531C54.0406 69.8756 55.2315 69.5803 56.2875 68.9969C60.5844 66.5219 61.5469 58.8031 59.3313 49.1094C68.8094 46.1906 75 41.4812 75 36.5281ZM55.0937 26.3312C54.5 28.3746 53.8118 30.3892 53.0312 32.3687C51.7558 29.8825 50.3529 27.4636 48.8281 25.1219C51.0031 25.4406 53.0927 25.8437 55.0969 26.3312M48.0969 42.6125C46.9521 44.6107 45.7228 46.5593 44.4125 48.4531C39.8257 48.8567 35.2127 48.8619 30.625 48.4687C27.9942 44.7096 25.6929 40.7302 23.7469 36.575C25.6885 32.4093 27.98 28.4158 30.5969 24.6375C35.1825 24.2331 39.7945 24.2268 44.3812 24.6187C45.6521 26.4417 46.8854 28.3792 48.0812 30.4312C49.2417 32.4333 50.3021 34.4604 51.2625 36.5125C50.2906 38.588 49.2345 40.623 48.0969 42.6125ZM53.0312 40.625C53.8562 42.675 54.5625 44.7219 55.1406 46.7094C53.1406 47.2 51.0281 47.6125 48.8438 47.9312C50.3603 45.567 51.7579 43.1286 53.0312 40.625ZM37.5313 56.9375C36.1063 55.4667 34.6896 53.8354 33.2812 52.0437C34.6562 52.1062 36.0625 52.1531 37.4844 52.1531C38.924 52.1552 40.3406 52.1187 41.7344 52.0437C40.3594 53.8344 38.9375 55.4687 37.5313 56.9375ZM26.1562 47.9312C24.0491 47.6264 21.9573 47.2239 19.8875 46.725C20.4531 44.7531 21.1563 42.7187 21.95 40.6875C22.5781 41.9062 23.2375 43.1312 23.9562 44.3562C24.675 45.5792 25.4083 46.7708 26.1562 47.9312ZM37.4531 16.1187C38.8781 17.5896 40.2948 19.2208 41.7031 21.0125C40.3281 20.95 38.9219 20.9031 37.5 20.9031C36.0604 20.901 34.6438 20.9375 33.25 21.0125C34.625 19.2219 36.0469 17.5875 37.4531 16.1187ZM26.1406 25.125C24.6245 27.4841 23.2269 29.9173 21.9531 32.4156C21.1509 30.4232 20.4469 28.3927 19.8437 26.3312C21.8437 25.8562 23.9562 25.4437 26.1406 25.125ZM12.3062 44.2625C6.89375 41.9562 3.39375 38.9281 3.39375 36.5281C3.39375 34.1281 6.89375 31.0844 12.3062 28.7937C13.6187 28.2281 15.0563 27.7219 16.5406 27.25C17.4125 30.2437 18.5594 33.3625 19.9781 36.5594C18.6371 39.5656 17.5043 42.6604 16.5875 45.8219C15.136 45.3718 13.7072 44.8514 12.3062 44.2625ZM20.5313 66.1062C18.4531 64.9187 17.55 60.375 18.2531 54.5375C18.4219 53.1 18.6969 51.5844 19.0344 50.0406C22.0281 50.775 25.3 51.3406 28.7406 51.7094C30.689 54.3952 32.8135 56.9487 35.1 59.3531C30.1156 63.9844 25.4375 66.5219 22.2563 66.5219C21.6565 66.5243 21.065 66.3828 20.5313 66.1094M56.7937 54.4625C57.5125 60.3031 56.625 64.8437 54.5594 66.05C54.1031 66.325 53.5062 66.4469 52.8031 66.4469C49.6375 66.4469 44.9437 63.925 39.9594 59.3219C42.2373 56.9284 44.3476 54.3807 46.275 51.6969C49.5503 51.3598 52.7986 50.7981 55.9969 50.0156C56.3531 51.5573 56.6187 53.0396 56.7937 54.4625ZM62.6781 44.2656C61.3656 44.8312 59.9281 45.3375 58.4437 45.8094C57.5091 42.6323 56.3607 39.5221 55.0062 36.5C56.4125 33.3219 57.5406 30.2187 58.3969 27.2375C59.9135 27.7104 61.3458 28.2302 62.6938 28.7969C68.1063 31.1031 71.6062 34.1312 71.6062 36.5312C71.5906 38.9312 68.0906 41.975 62.6781 44.2656Z" fill="black"/>
<path d="M37.4843 43.5155C39.3375 43.5155 41.1148 42.7793 42.4252 41.4689C43.7356 40.1585 44.4718 38.3812 44.4718 36.528C44.4718 34.6748 43.7356 32.8975 42.4252 31.5871C41.1148 30.2767 39.3375 29.5405 37.4843 29.5405C35.6311 29.5405 33.8538 30.2767 32.5434 31.5871C31.233 32.8975 30.4968 34.6748 30.4968 36.528C30.4968 38.3812 31.233 40.1585 32.5434 41.4689C33.8538 42.7793 35.6311 43.5155 37.4843 43.5155Z" fill="black"/>
</g>
</svg>
