<?xml version="1.0" encoding="UTF-8"?>
<svg id="Layer_2" data-name="Layer 2" xmlns="http://www.w3.org/2000/svg" viewBox="0 0 185.48 185.46">
  <defs>
    <style>
      .cls-1 {
        fill: #472425;
        font-family: DenimTRIAL-Regular, 'Denim TRIAL';
        font-size: 24px;
        font-variation-settings: 'wght' 400, 'ital' 0, 'wdth' 100;
      }
    </style>
  </defs>
  <g id="Layer_1-2" data-name="Layer 1">
    <text class="cls-1" transform="translate(165.39 92.06) rotate(94.76)"><tspan x="0" y="0">S</tspan></text>
    <text class="cls-1" transform="translate(164.62 104.35) rotate(105.54)"><tspan x="0" y="0">C</tspan></text>
    <text class="cls-1" transform="translate(160.71 118.69) rotate(116.88)"><tspan x="0" y="0">R</tspan></text>
    <text class="cls-1" transform="translate(154.92 130.78) rotate(128.46)"><tspan x="0" y="0">O</tspan></text>
    <text class="cls-1" transform="translate(144.63 143.51) rotate(139.18)"><tspan x="0" y="0">L</tspan></text>
    <text class="cls-1" transform="translate(136.18 150.91) rotate(148.03)"><tspan x="0" y="0">L</tspan></text>
    <text class="cls-1" transform="translate(126.85 156.62) rotate(154.03)"><tspan x="0" y="0"> </tspan></text>
    <text class="cls-1" transform="translate(122.86 159.04) rotate(161.99)"><tspan x="0" y="0">N</tspan></text>
    <text class="cls-1" transform="translate(108.64 163.68) rotate(172.94)"><tspan x="0" y="0">E</tspan></text>
    <text class="cls-1" transform="translate(96.16 165.47) rotate(-176.24)"><tspan x="0" y="0">D</tspan></text>
    <text class="cls-1" transform="translate(80.6 164.13) rotate(-168.23)"><tspan x="0" y="0"> </tspan></text>
    <text class="cls-1" transform="translate(76 163.7) rotate(-159.76)"><tspan x="0" y="0">O</tspan></text>
    <text class="cls-1" transform="translate(60.8 158.22) rotate(-147.29)"><tspan x="0" y="0">G</tspan></text>
    <text class="cls-1" transform="translate(47.58 149.34) rotate(-139.21)"><tspan x="0" y="0"> </tspan></text>
    <text class="cls-1" transform="translate(43.78 146.62) rotate(-131.37)"><tspan x="0" y="0">U</tspan></text>
    <text class="cls-1" transform="translate(33.86 135.6) rotate(-119.6)"><tspan x="0" y="0">D</tspan></text>
    <text class="cls-1" transform="translate(26.37 122.34) rotate(-108.83)"><tspan x="0" y="0">F</tspan></text>
    <text class="cls-1" transform="translate(22.26 111.43) rotate(-97.81)"><tspan x="0" y="0">O</tspan></text>
    <text class="cls-1" transform="translate(20.05 95.31) rotate(-86.15)"><tspan x="0" y="0">R</tspan></text>
    <text class="cls-1" transform="translate(20.91 81.62) rotate(-75.88)"><tspan x="0" y="0">S</tspan></text>
    <text class="cls-1" transform="translate(23.8 69.59) rotate(-65.8)"><tspan x="0" y="0">K</tspan></text>
    <text class="cls-1" transform="translate(29.26 57.88) rotate(-58.98)"><tspan x="0" y="0"> </tspan></text>
    <text class="cls-1" transform="translate(31.02 53.68) rotate(-49.83)"><tspan x="0" y="0">M</tspan></text>
    <text class="cls-1" transform="translate(43.47 39.68) rotate(-40.6)"><tspan x="0" y="0">I</tspan></text>
    <text class="cls-1" transform="translate(47.14 36.19) rotate(-33.81)"><tspan x="0" y="0">T</tspan></text>
    <text class="cls-1" transform="translate(56.85 29.85) rotate(-27.58)"><tspan x="0" y="0"> </tspan></text>
    <text class="cls-1" transform="translate(60.89 27.36) rotate(-20.33)"><tspan x="0" y="0">P</tspan></text>
    <text class="cls-1" transform="translate(72.91 22.58) rotate(-8.73)"><tspan x="0" y="0">O</tspan></text>
    <text class="cls-1" transform="translate(88.98 20.11) rotate(2.92)"><tspan x="0" y="0">R</tspan></text>
    <text class="cls-1" transform="translate(102.14 20.71) rotate(12.51)"><tspan x="0" y="0">T</tspan></text>
    <text class="cls-1" transform="translate(112.82 22.66) rotate(22.99)"><tspan x="0" y="0">O</tspan></text>
    <text class="cls-1" transform="translate(127.81 29.11) rotate(34.13)"><tspan x="0" y="0">F</tspan></text>
    <text class="cls-1" transform="translate(137.68 35.37) rotate(45.04)"><tspan x="0" y="0">O</tspan></text>
    <text class="cls-1" transform="translate(149.17 47.07) rotate(55.81)"><tspan x="0" y="0">L</tspan></text>
    <text class="cls-1" transform="translate(155.53 56.68) rotate(62.38)"><tspan x="0" y="0">I</tspan></text>
    <text class="cls-1" transform="translate(158.25 60.76) rotate(70.95)"><tspan x="0" y="0">O</tspan></text>
  </g>
</svg>